<svg width="90" height="87" viewBox="0 0 90 87" fill="none" xmlns="http://www.w3.org/2000/svg"><path d="M13.8685 18.6987C13.9423 11.7834 19.6081 6.23727 26.5234 6.31109L66.7702 6.74075C73.6855 6.81458 79.2316 12.4804 79.1577 19.3957L78.871 46.2498C78.7972 53.1651 73.1314 58.7112 66.2161 58.6373L25.9693 58.2077C19.0541 58.1338 13.508 52.468 13.5818 45.5528L13.8685 18.6987Z" fill="#E4E4F9"></path><rect x="-2.52637" y="37.7724" width="70.6025" height="56.12" rx="13.5402" transform="rotate(-21.4649 -2.52637 37.7724)" fill="#8B78E3"></rect><path d="M78.7303 61.4979C77.1937 65.1316 74.2575 67.9926 70.5851 69.4344L30.6115 85.1274C26.601 86.7018 22.0753 86.2269 18.479 83.8543C18.243 83.6986 18.1838 83.3779 18.3487 83.1482L36.189 58.2947C39.0355 54.3293 44.0001 52.4829 48.746 53.6246L78.3515 60.7471C78.6824 60.8268 78.8629 61.1843 78.7303 61.4979Z" fill="url(#mail-success-paint0_linear)"></path><path d="M1.77968 48.2292C-0.26203 43.309 2.13109 37.671 7.08867 35.7216L54.7625 16.9761C59.709 15.0312 65.2889 17.5229 67.1424 22.5044C67.1532 22.5333 67.1515 22.5654 67.1378 22.593L51.1771 54.8526C48.4662 60.3319 42.07 62.8979 36.3239 60.8114L1.84499 48.2917C1.81543 48.281 1.79173 48.2583 1.77968 48.2292Z" fill="url(#mail-success-paint1_linear)"></path><path d="M1.55894 48.1622C-0.697312 42.4241 2.12531 35.9433 7.86345 33.6871L52.7895 16.0221C58.5276 13.7658 65.0084 16.5884 67.2646 22.3266C67.2802 22.3663 67.2756 22.4111 67.2522 22.4468L48.2318 51.4498C45.4415 55.7046 40.2714 57.7374 35.3305 56.5226L1.64995 48.2418C1.6085 48.2316 1.57456 48.202 1.55894 48.1622Z" fill="url(#mail-success-paint2_linear)"></path><path d="M21.5695 67.3618C21.6939 65.8614 23.1828 64.8677 24.6162 65.3284C25.2968 65.5471 26.0401 65.4426 26.634 65.0446C27.8846 64.2064 29.5899 64.7509 30.1234 66.1587C30.3767 66.8273 30.9219 67.3433 31.6034 67.5594C33.0384 68.0146 33.6759 69.6873 32.9079 70.9822C32.5431 71.5971 32.4796 72.345 32.7355 73.0126C33.2744 74.4184 32.3641 75.9597 30.8729 76.1665C30.1647 76.2648 29.5404 76.6815 29.178 77.2978C28.4148 78.5955 26.6422 78.8448 25.5507 77.8079C25.0324 77.3155 24.3174 77.0872 23.6096 77.1881C22.1191 77.4006 20.819 76.1702 20.9492 74.6703C21.011 73.958 20.7437 73.2566 20.2235 72.7662C19.1281 71.7334 19.2794 69.9498 20.5333 69.1164C21.1287 68.7206 21.5104 68.0743 21.5695 67.3618Z" fill="url(#mail-success-paint3_linear)"></path><path d="M56.8452 57.1287L71.606 50.8362L72.2352 52.3123L57.4745 58.6047L56.8452 57.1287Z" fill="#BFA1FE"></path><path d="M58.1032 60.0811L72.864 53.7886L73.4932 55.2647L58.7325 61.5571L58.1032 60.0811Z" fill="#BFA1FE"></path><path d="M85.6613 18.6813C85.6613 26.8641 79.0278 33.4976 70.845 33.4976C62.6623 33.4976 56.0288 26.8641 56.0288 18.6813C56.0288 10.4986 62.6623 3.86511 70.845 3.86511C79.0278 3.86511 85.6613 10.4986 85.6613 18.6813Z" fill="url(#mail-success-paint4_linear)"></path><path fill-rule="evenodd" clip-rule="evenodd" d="M89.5262 18.6813C89.5262 28.9987 81.1623 37.3626 70.8449 37.3626C60.5275 37.3626 52.1636 28.9987 52.1636 18.6813C52.1636 8.36391 60.5275 0 70.8449 0C81.1623 0 89.5262 8.36391 89.5262 18.6813ZM70.8449 33.4975C79.0277 33.4975 85.6611 26.8641 85.6611 18.6813C85.6611 10.4986 79.0277 3.8651 70.8449 3.8651C62.6621 3.8651 56.0287 10.4986 56.0287 18.6813C56.0287 26.8641 62.6621 33.4975 70.8449 33.4975Z" fill="white"></path><path fill-rule="evenodd" clip-rule="evenodd" d="M80.3837 13.0429C81.0073 13.686 80.9915 14.7128 80.3485 15.3364L69.7194 25.6434C69.0903 26.2534 68.0903 26.2534 67.4612 25.6434L62.6298 20.9584C61.9867 20.3348 61.9709 19.3079 62.5945 18.6649C63.2181 18.0218 64.245 18.006 64.888 18.6296L68.5903 22.2196L78.0902 13.0076C78.7333 12.384 79.7601 12.3998 80.3837 13.0429Z" fill="white"></path><defs><linearGradient id="mail-success-paint0_linear" x1="30.9155" y1="26.3532" x2="44.1645" y2="60.0484" gradientUnits="userSpaceOnUse"><stop stop-color="#492BC2"></stop><stop offset="1" stop-color="#7361E4"></stop></linearGradient><linearGradient id="mail-success-paint1_linear" x1="30.9155" y1="26.3532" x2="44.1645" y2="60.0484" gradientUnits="userSpaceOnUse"><stop stop-color="#492BC2"></stop><stop offset="1" stop-color="#7361E4"></stop></linearGradient><linearGradient id="mail-success-paint2_linear" x1="12.7174" y1="34.7857" x2="46.414" y2="43.611" gradientUnits="userSpaceOnUse"><stop stop-color="#B2A6FA"></stop><stop offset="1" stop-color="#9E8BE7"></stop></linearGradient><linearGradient id="mail-success-paint3_linear" x1="20.9784" y1="69.0535" x2="33.5773" y2="74.9075" gradientUnits="userSpaceOnUse"><stop stop-color="#C5B0FF"></stop><stop offset="1" stop-color="#967AE5"></stop></linearGradient><linearGradient id="mail-success-paint4_linear" x1="87.2209" y1="35.0572" x2="60.7076" y2="11.6631" gradientUnits="userSpaceOnUse"><stop offset="0.0852433" stop-color="#1ECB81"></stop><stop offset="1" stop-color="#40D193"></stop></linearGradient></defs></svg>




