<?xml version="1.0" encoding="UTF-8"?>
<svg version="1.1" xmlns="http://www.w3.org/2000/svg" width="1155" height="742">
<path d="M0 0 C3.28956424 1.55591639 6.31090468 3.48122007 9.375 5.4375 C11.16824606 6.54723059 12.96252982 7.65528597 14.7578125 8.76171875 C15.64500977 9.31263184 16.53220703 9.86354492 17.44628906 10.43115234 C61.97497869 37.78692285 111.58524109 52.49506979 163.34399414 57.74462891 C164.10309586 57.82232513 164.86219757 57.90002136 165.64430237 57.98007202 C167.07866553 58.12553535 168.51342284 58.267178 169.94859314 58.40444946 C174.77995577 58.88997789 174.77995577 58.88997789 177 60 C177.4375 62.5 177.4375 62.5 177 66 C175.69519043 67.81178284 175.69519043 67.81178284 173.95117188 69.72094727 C173.3129248 70.42285187 172.67467773 71.12475647 172.01708984 71.84793091 C166.68565306 77.53613581 161.240247 83.10558825 155.75732422 88.64770508 C154.24616315 90.1806036 152.74130756 91.7197426 151.24267578 93.26489258 C149.0615588 95.5128464 146.86144618 97.74053691 144.65625 99.96484375 C143.99250366 100.65642075 143.32875732 101.34799774 142.64489746 102.06053162 C139.5764679 105.11560817 137.66372731 106.81133063 133.43310547 108.01391602 C129.89202922 107.99956234 126.86366391 107.60673986 123.4140625 106.8125 C122.16608887 106.52955078 120.91811523 106.24660156 119.63232422 105.95507812 C118.29634669 105.63757081 116.96057631 105.3191908 115.625 105 C114.23590752 104.67614189 112.84674644 104.35257787 111.45751953 104.02929688 C98.86405541 101.07024561 86.38266726 97.74749789 74 94 C73.09636719 93.72720215 72.19273437 93.4544043 71.26171875 93.17333984 C50.24784174 86.73149431 30.5859868 77.51162028 11.02734375 67.56640625 C10.1441748 67.12055176 9.26100586 66.67469727 8.35107422 66.21533203 C6.43662078 65.22570075 4.55780181 64.16737318 2.69140625 63.08984375 C-0.76198819 61.69144455 -2.45016198 61.9222068 -6 63 C-8.19758675 64.16837396 -10.26670949 65.37772596 -12.375 66.6875 C-53.87755422 90.96739514 -102.74256832 103.757479 -150 110 C-150.99 110.13277344 -151.98 110.26554687 -153 110.40234375 C-160.0308369 111.33351114 -166.89580722 112.03524218 -174 112 C-173.17438742 141.81355904 -172.21788146 171.44705443 -168 201 C-167.84805176 202.07121094 -167.69610352 203.14242187 -167.53955078 204.24609375 C-164.44181023 225.30388365 -159.49671911 246.38317793 -153.42211914 266.7746582 C-152.45701596 270.0538762 -152 272.53267484 -152 276 C-151.41984131 276.01925537 -150.83968262 276.03851074 -150.24194336 276.05834961 C-140.71001115 276.63438134 -131.75430374 279.14117731 -122.5625 281.5625 C-120.72815697 282.03939861 -118.89368032 282.51578352 -117.05908203 282.99169922 C-111.88261414 284.3385822 -106.71004982 285.69992967 -101.53851318 287.06561279 C-98.41423873 287.89061525 -95.28958093 288.71414964 -92.16478825 289.53718662 C-83.91553773 291.7102987 -75.66877585 293.89270092 -67.42365646 296.08143234 C-65.37164382 296.62589049 -63.3193986 297.16946506 -61.26712036 297.71292114 C-57.41385705 298.73380532 -53.5622925 299.76100126 -49.7109375 300.7890625 C-48.54005081 301.0990065 -47.36916412 301.4089505 -46.16279602 301.72828674 C-45.09893173 302.01340622 -44.03506744 302.2985257 -42.93896484 302.59228516 C-42.00498871 302.84112457 -41.07101257 303.08996399 -40.10873413 303.34634399 C-38 304 -38 304 -37 305 C-36.84182356 308.55896985 -37.0645509 311.57744416 -38 315 C-37.443125 314.3709375 -36.88625 313.741875 -36.3125 313.09375 C-31.97171308 308.22502953 -27.55059604 303.50821036 -22.90234375 298.93359375 C-20.38093689 296.37076748 -18.05763265 293.6588788 -15.71484375 290.93359375 C-13.4995262 288.43568444 -11.1310183 286.11975011 -8.75 283.78125 C-6.91757513 281.91610326 -5.20646865 279.98072254 -3.5 278 C-0.74724364 274.80483636 2.14527956 271.8291295 5.15429688 268.87695312 C6.94322978 267.05773141 8.61705557 265.18337346 10.28125 263.25 C13.76420321 259.2447877 17.3566046 255.35909696 21 251.5 C22.32295302 250.0937842 23.64586863 248.6875332 24.96875 247.28125 C25.63777344 246.57097656 26.30679687 245.86070312 26.99609375 245.12890625 C30.16942461 241.75762882 33.33446513 238.37859572 36.5 235 C37.74864908 233.66792297 38.99734711 232.33589183 40.24609375 231.00390625 C40.86468262 230.34406738 41.48327148 229.68422852 42.12060547 229.00439453 C44.00849753 226.9909373 45.89677957 224.97784647 47.78515625 222.96484375 C55.62428923 214.6074879 63.4508291 206.23854685 71.26611328 197.85888672 C73.59302561 195.36422176 75.92073672 192.87030295 78.24853516 190.37646484 C79.41366693 189.12817898 80.5787064 187.87980695 81.74365234 186.63134766 C84.69594267 183.46753023 87.64952664 180.30493734 90.60546875 177.14453125 C91.79957325 175.86727545 92.99358446 174.58993243 94.1875 173.3125 C94.76765869 172.69181641 95.34781738 172.07113281 95.94555664 171.43164062 C99.63572574 167.4779253 103.29478424 163.49742291 106.9375 159.5 C110.3346605 155.77953725 113.79494491 152.16781595 117.390625 148.640625 C119.79744624 146.18706937 122.0074228 143.5717414 124.25 140.96875 C126.44918507 138.49466679 128.79216095 136.19446585 131.15405273 133.87719727 C132.94432648 132.05661601 134.61957607 130.18079908 136.28515625 128.24609375 C139.74762541 124.26457406 143.31637567 120.39957645 146.9375 116.5625 C147.57574707 115.88364746 148.21399414 115.20479492 148.87158203 114.50537109 C152.31481806 110.84436776 155.76472857 107.18967538 159.21484375 103.53515625 C160.60171959 102.06525237 161.98844014 100.59520195 163.375 99.125 C164.05038818 98.40908691 164.72577637 97.69317383 165.42163086 96.95556641 C169.70383431 92.40628715 173.90106136 87.79581318 178.0546875 83.12890625 C180.56829411 80.37807171 183.20111554 77.76603523 185.8828125 75.1796875 C187.75451962 73.25272704 189.51670632 71.28149418 191.27734375 69.25390625 C194.89566521 65.0901478 198.64350679 61.06597458 202.4375 57.0625 C203.12271729 56.33667725 203.80793457 55.61085449 204.51391602 54.86303711 C206.67471364 52.57419222 208.83725067 50.28700064 211 48 C213.81416406 45.02239992 216.62681188 42.04338146 219.4375 39.0625 C220.44478149 37.99443115 220.44478149 37.99443115 221.47241211 36.90478516 C225.73773518 32.37131965 229.92027363 27.77818063 234.0546875 23.125 C236.01282727 20.98598788 238.04723796 18.95996039 240.125 16.9375 C243.6734191 13.47407298 246.58623505 9.72434406 249.45703125 5.6875 C249.96621094 5.130625 250.47539063 4.57375 251 4 C251.99 4 252.98 4 254 4 C254 3.01 254 2.02 254 1 C255.32 1 256.64 1 258 1 C258.28652323 5.56207736 257.81135063 8.03268456 255.2890625 11.8359375 C254.70874268 12.72716309 254.12842285 13.61838867 253.53051758 14.53662109 C252.90169678 15.47328613 252.27287598 16.40995117 251.625 17.375 C250.32875583 19.3537271 249.03318665 21.33289653 247.73828125 23.3125 C247.09842285 24.281875 246.45856445 25.25125 245.79931641 26.25 C243.40040805 29.91639128 241.10356432 33.64073066 238.8125 37.375 C234.91373085 43.6852451 230.76832261 49.80419647 226.48950195 55.86279297 C222.66316574 61.31900728 221.87605759 64.56251652 221.90234375 71.17993164 C221.90453415 72.27374146 221.90453415 72.27374146 221.9067688 73.38964844 C221.91057755 74.97742957 221.91669701 76.56520643 221.92483521 78.15297127 C221.93766759 80.69333363 221.94413563 83.23364319 221.94897461 85.77403259 C221.96231636 92.10544514 221.98609593 98.43680983 222.01037598 104.76818848 C222.22301002 161.07009715 222.22301002 161.07009715 219.3125 187.4375 C219.22696869 188.2278363 219.14143738 189.01817261 219.05331421 189.8324585 C210.93627007 264.07669887 188.73967284 338.93502627 143 399 C142.51257324 399.64437012 142.02514648 400.28874023 141.52294922 400.95263672 C136.07167484 408.13123143 130.38291887 414.9643697 124.24609375 421.5703125 C122.37745905 423.59168778 120.586462 425.64652343 118.8125 427.75 C109.77564071 438.11141077 99.80136266 447.51528349 89 456 C87.79694753 456.9891163 86.59660678 457.98153652 85.3984375 458.9765625 C26.16743066 508.04498651 26.16743066 508.04498651 -2.625 506.67578125 C-16.41192819 503.91520419 -29.67547571 496.58510153 -42 490 C-42.98129883 489.48034668 -42.98129883 489.48034668 -43.98242188 488.95019531 C-54.49909483 483.3430131 -64.33094768 476.95861115 -74 470 C-75.06089844 469.236875 -76.12179687 468.47375 -77.21484375 467.6875 C-87.5610037 460.07403145 -97.23763972 451.68584064 -106.734375 443.046875 C-108.81761127 441.16477879 -110.93218933 439.32837688 -113.0625 437.5 C-120.27405305 431.2044305 -126.84271129 424.31959483 -133 417 C-133.44111618 416.47750671 -133.88223236 415.95501343 -134.3367157 415.41668701 C-142.80337936 405.34171872 -150.36229166 394.92380433 -157.5 383.875 C-158.50527869 382.33208077 -159.51073336 380.78927618 -160.51635742 379.24658203 C-167.52688864 368.45318785 -174.25047051 357.52685964 -180.63867188 346.35205078 C-182.01499529 343.97409172 -183.42980122 341.62362439 -184.859375 339.27734375 C-192.54272984 326.64119482 -196.79823511 317.18864036 -196 302 C-188.44984732 302 -184.53637099 306.29681002 -179 311 C-176.98870333 312.57475691 -174.96728813 314.13665064 -172.9375 315.6875 C-171.82678595 316.53901429 -170.71611017 317.39057849 -169.60546875 318.2421875 C-168.40373368 319.16157317 -167.20190672 320.08083874 -166 321 C-164.66275917 322.02343587 -163.32551963 323.04687343 -161.98828125 324.0703125 C-157.66007478 327.3818059 -153.33016304 330.69106568 -149 334 C-146.08315537 336.22893393 -143.16647726 338.45808539 -140.25 340.6875 C-139.53948486 341.23051758 -138.82896973 341.77353516 -138.09692383 342.33300781 C-134.92874492 344.75545235 -131.76255718 347.18030109 -128.60546875 349.6171875 C-127.81293701 350.22832397 -127.81293701 350.22832397 -127.00439453 350.85180664 C-125.43943826 352.06100236 -123.87791802 353.27464069 -122.31640625 354.48828125 C-119.92934013 356.32197214 -117.49474166 358.06904068 -115.02734375 359.79296875 C-106.12402195 366.08600803 -99.69776772 372.54776294 -93.27685547 381.31689453 C-89.57106858 386.20173101 -85.23632297 390.57808574 -81 395 C-80.44860352 395.58394531 -79.89720703 396.16789062 -79.32910156 396.76953125 C-70.54870936 406.03257689 -61.30125877 414.06683524 -50.97119141 421.55810547 C-49.21080217 422.84580163 -47.48268116 424.16430265 -45.76171875 425.50390625 C-24.88422431 441.49253478 -24.88422431 441.49253478 -1.14550781 449.34863281 C3.49797943 448.59409255 7.53309109 446.09162305 11.625 443.875 C12.62756836 443.34092529 13.63013672 442.80685059 14.66308594 442.2565918 C29.39783304 434.24963307 43.29952708 424.95441772 56 414 C57.76902062 412.58107041 59.5399212 411.16448207 61.3125 409.75 C71.95128509 401.01371582 81.55582237 391.90040142 90 381 C90.9511884 379.83328959 91.90582211 378.66938237 92.86328125 377.5078125 C143.63808921 315.6794314 167.34154852 230.02521295 169 151 C160.22505327 164.79395036 151.62360705 178.68994649 143.07324219 192.62402344 C141.02323 195.9621733 138.96940085 199.29793978 136.9140625 202.6328125 C130.58296983 212.90594949 124.26659104 223.18736889 118 233.5 C107.33108617 251.05301565 96.55829893 268.54001812 85.65356445 285.94750977 C75.99178777 301.3847548 66.48407369 316.91762359 56.99975586 332.46435547 C53.62565782 337.98971564 50.22314091 343.49713454 46.8125 349 C36.52576995 365.60012419 26.27644666 382.22174433 16.16497803 398.92922974 C5.99917915 415.71830294 5.99917915 415.71830294 1.625 422.625 C0.65433594 424.16027344 0.65433594 424.16027344 -0.3359375 425.7265625 C-2 428 -2 428 -5 430 C-9.84693541 429.77013179 -12.29524629 428.36124331 -15.875 425.1875 C-20.32350843 421.38135378 -24.85712381 417.795723 -29.5625 414.3125 C-35.43382405 409.94799458 -41.23723272 405.50684303 -47 401 C-52.68103322 396.55770202 -58.40056362 392.17839692 -64.1875 387.875 C-70.01661184 383.53759001 -75.71130405 379.06074991 -81.36279297 374.49511719 C-86.42675713 370.42011544 -91.60207447 366.5124901 -96.81738281 362.6340332 C-101.84827017 358.88506628 -106.80913534 355.0541463 -111.75 351.1875 C-118.19167336 346.14901882 -124.69570619 341.20352293 -131.25 336.3125 C-138.17269248 331.14546216 -145.01619915 325.89654889 -151.7890625 320.53515625 C-157.14533647 316.29571551 -162.5754063 312.15136853 -168 308 C-168.96462158 307.26160889 -168.96462158 307.26160889 -169.94873047 306.50830078 C-174.24045534 303.22374435 -178.53404134 299.94162799 -182.828125 296.66015625 C-184.9275904 295.05534906 -187.02642464 293.44972084 -189.125 291.84375 C-195.21949482 287.18031893 -201.3158208 282.5193866 -207.421875 277.87109375 C-208.34838867 277.16573486 -209.27490234 276.46037598 -210.22949219 275.73364258 C-212.02147507 274.36975853 -213.81377168 273.00628655 -215.60644531 271.64331055 C-217.26233759 270.38309241 -218.91573797 269.11959203 -220.56640625 267.85253906 C-222.22813802 266.58756909 -223.90336844 265.34018678 -225.58984375 264.10839844 C-226.81380859 263.20009277 -226.81380859 263.20009277 -228.0625 262.2734375 C-228.79597656 261.73895996 -229.52945312 261.20448242 -230.28515625 260.65380859 C-232.21863475 258.78914695 -232.6290064 257.62335283 -233 255 C-224.67889465 254.32379279 -217.81816322 256.25506495 -210 259 C-210.30292969 257.79730469 -210.60585938 256.59460938 -210.91796875 255.35546875 C-215.92822797 235.11854507 -219.68182814 214.74681718 -222.25 194.0625 C-222.33299347 193.39431244 -222.41598694 192.72612488 -222.50149536 192.03768921 C-226.00392388 163.53815685 -226.10048272 134.99505347 -226.12293625 106.32410812 C-226.12498922 104.26083738 -226.1287486 102.19757547 -226.13284302 100.13430786 C-226.13990741 96.19890156 -226.13708866 92.26353611 -226.1328125 88.328125 C-226.13479141 87.14884933 -226.13677032 85.96957367 -226.1388092 84.75456238 C-226.08692475 66.02746919 -226.08692475 66.02746919 -223 59 C-221.90574707 58.98541748 -220.81149414 58.97083496 -219.68408203 58.95581055 C-148.40288346 57.93601656 -64.07969355 50.98916495 -7.98828125 1.21484375 C-5.0074825 -0.60643014 -3.47034258 -0.54859046 0 0 Z " fill="#02FDFD" transform="translate(566,9)"/>
<path d="M0 0 C0.28875 -0.804375 0.5775 -1.60875 0.875 -2.4375 C2 -5 2 -5 4 -6 C11.10601719 -6.45845272 11.10601719 -6.45845272 14.4375 -4.75 C17.62689728 -1.17787504 17.13520718 3.15444272 17.16113281 7.74951172 C17.16858017 8.755411 17.16858017 8.755411 17.17617798 9.78163147 C17.19076326 11.99766073 17.19759963 14.21361813 17.203125 16.4296875 C17.20736607 17.5729418 17.20736607 17.5729418 17.21169281 18.73929214 C17.22667986 22.78192744 17.23590916 26.82452717 17.24023438 30.8671875 C17.24568246 35.00682403 17.26963329 39.14612553 17.29820633 43.28565788 C17.31701724 46.49796427 17.32204825 49.71019344 17.32357025 52.9225502 C17.32656182 54.4460951 17.3344691 55.96963983 17.34775543 57.49312973 C17.46323054 71.76669047 16.65136387 87.34195037 6.6640625 98.5546875 C-2.60974927 106.60940664 -14.07295639 108.83418311 -26 108 C-34.65649138 107.16493086 -42.19258965 104.81871885 -50 101 C-50.93070313 100.54496094 -51.86140625 100.08992187 -52.8203125 99.62109375 C-55 98 -55 98 -55.55859375 95.84375 C-55.51863281 95.0703125 -55.47867188 94.296875 -55.4375 93.5 C-55.41558594 92.7265625 -55.39367187 91.953125 -55.37109375 91.15625 C-55 89 -55 89 -53 86 C-48.11099804 84.51609471 -44.3565614 85.49241279 -39.625 86.9375 C-28.86466782 89.91129659 -18.29957789 90.90634438 -8 86 C-7.01 85.67 -6.02 85.34 -5 85 C-2.38348793 78.87327009 -1.62691849 72.59110674 -2 66 C-2.94875 66.598125 -3.8975 67.19625 -4.875 67.8125 C-12.6315984 72.21574071 -21.03781075 74.46570486 -29.8125 72.30859375 C-40.24407124 69.12856119 -49.93465838 64.40450575 -56 55 C-61.48240629 43.24959871 -63.51190024 28.79785321 -59.08984375 16.3671875 C-54.8292332 7.11295813 -48.62856727 1.26810037 -40 -4 C-39.37738281 -4.38285156 -38.75476563 -4.76570312 -38.11328125 -5.16015625 C-26.04591443 -10.99045707 -10.49446366 -6.99630911 0 0 Z M-41 17 C-45.31164563 24.76096213 -45.52860694 34.53664558 -43.15625 43.015625 C-40.48851432 49.03605552 -36.99937856 52.36808872 -31 55 C-24.69623004 57.36391374 -19.2622123 58.2931292 -12.96484375 55.796875 C-5.61034874 52.48748678 -5.61034874 52.48748678 0 47 C0.71837614 43.28019996 0.83506126 39.59320407 0.9375 35.8125 C0.99228516 34.80896484 1.04707031 33.80542969 1.10351562 32.77148438 C1.34020236 26.38924737 0.93268828 20.7693919 -2 15 C-6.83854195 9.87745667 -14.54148334 7.99213868 -21.375 7.625 C-29.01964244 7.82034861 -35.79900727 11.55134094 -41 17 Z " fill="#CBFD00" transform="translate(1045,624)"/>
<path d="M0 0 C2.86942113 2.26533247 3.83907612 3.51722837 5 7 C5.09501346 9.10248655 5.13072694 11.2078687 5.1328125 13.3125 C5.13410156 14.55257812 5.13539063 15.79265625 5.13671875 17.0703125 C5.13285156 18.36710938 5.12898438 19.66390625 5.125 21 C5.13080078 22.94519531 5.13080078 22.94519531 5.13671875 24.9296875 C5.13542969 26.16976562 5.13414062 27.40984375 5.1328125 28.6875 C5.13168457 29.82574219 5.13055664 30.96398437 5.12939453 32.13671875 C5 35 5 35 4 38 C4.78503906 37.59007812 5.57007813 37.18015625 6.37890625 36.7578125 C17.63285078 30.98585077 25.64365885 28.30009264 38.1640625 32.0390625 C49.30664669 35.81464888 55.55223323 41.62093647 61.375 51.875 C66.36623853 62.96664118 66.07341317 76.39843177 62.375 87.8125 C58.13325498 98.12902985 50.73303327 105.47243125 40.59375 110.09765625 C32.47053219 112.93287026 23.05808608 113.68725148 15.0625 110.1875 C13.69709327 109.47960463 12.34177849 108.75171928 11 108 C9.824375 107.4225 8.64875 106.845 7.4375 106.25 C6.633125 105.8375 5.82875 105.425 5 105 C4.38125 105.804375 3.7625 106.60875 3.125 107.4375 C1 110 1 110 -1 111 C-7.24259681 111.57801822 -7.24259681 111.57801822 -10.375 109.1875 C-12.66478227 106.10510079 -13.12504975 103.64051248 -13.13371277 99.9077301 C-13.13797775 99.0763855 -13.14224274 98.24504089 -13.14663696 97.38850403 C-13.14618378 96.47985092 -13.14573059 95.57119781 -13.14526367 94.63500977 C-13.14862228 93.67539337 -13.1519809 92.71577698 -13.15544128 91.7270813 C-13.16495602 88.54850986 -13.1668946 85.36999105 -13.16796875 82.19140625 C-13.17118076 79.98567177 -13.17454479 77.77993751 -13.17805481 75.57420349 C-13.18404724 70.94814561 -13.18589457 66.32210641 -13.18530273 61.69604492 C-13.18520106 55.76300746 -13.19885851 49.83008953 -13.21607494 43.89708042 C-13.22718276 39.34095202 -13.22922232 34.78485264 -13.22869301 30.22871208 C-13.22987476 28.04101079 -13.23430744 25.8533088 -13.24202538 23.6656208 C-13.25180142 20.60845643 -13.24895669 17.55155317 -13.24291992 14.49438477 C-13.24853943 13.58775589 -13.25415894 12.68112701 -13.25994873 11.74702454 C-13.25575424 10.91286011 -13.25155975 10.07869568 -13.24723816 9.21925354 C-13.24778293 8.49677712 -13.24832769 7.77430071 -13.24888897 7.02993107 C-12.95657323 4.64581255 -12.23062704 3.05288981 -11 1 C-7.43300025 -1.77433314 -4.20504308 -1.05126077 0 0 Z M12 50 C10.95682617 50.48170654 10.95682617 50.48170654 9.89257812 50.97314453 C7.33973337 52.43587701 5.77564611 53.63832418 4 56 C2.95299861 60.90226859 3.15494285 65.63703793 3.375 70.625 C3.3980101 71.96088211 3.4175724 73.2968283 3.43359375 74.6328125 C3.35165065 82.1563202 3.35165065 82.1563202 6 89 C12.54819327 94.44930106 20.0881633 96.50834354 28.5078125 96.31640625 C35.03221457 95.48807307 39.79669053 91.92387681 44 87 C48.84806567 80.07419189 48.79181712 72.29573103 47.57421875 64.15234375 C46.06785603 57.43378119 43.69713037 52.99140271 38 49 C29.18296482 44.16708681 20.74808017 45.655004 12 50 Z " fill="#CBFC06" transform="translate(234,586)"/>
<path d="M0 0 C2.4375 1.1875 2.4375 1.1875 4 3 C5.14767542 7.16204039 5.11477987 11.19025235 5.09765625 15.48828125 C5.0962413 16.19147995 5.09482635 16.89467865 5.09336853 17.6191864 C5.08780109 19.85033544 5.07525475 22.08138164 5.0625 24.3125 C5.05748079 25.83137875 5.05291862 27.35025909 5.04882812 28.86914062 C5.03784236 32.57946012 5.02060034 36.28972001 5 40 C5.61053223 39.58790283 6.22106445 39.17580566 6.85009766 38.7512207 C7.65495605 38.21070068 8.45981445 37.67018066 9.2890625 37.11328125 C10.08521973 36.57743408 10.88137695 36.04158691 11.70166016 35.48950195 C19.3274437 30.54740451 27.74775505 29.00380273 36.6875 30.625 C44.0368098 32.61981266 49.43960706 36.51087575 53.75 42.77734375 C60.22324759 54.28758713 59.20556434 68.70376412 59.24023438 81.51000977 C59.25003453 83.69519826 59.28122676 85.87947983 59.3125 88.06445312 C59.37051837 95.48606654 59.33023149 102.19892724 56 109 C52.95862027 110.52933408 50.40510955 111.09558202 47 111 C43.90097023 109.7087376 42.49960183 108.99920366 41 106 C40.90250428 104.60285968 40.86452584 103.20130468 40.8581543 101.80078125 C40.85111984 100.93227539 40.84408539 100.06376953 40.83683777 99.16894531 C40.83267349 98.22631836 40.82850922 97.28369141 40.82421875 96.3125 C40.80100083 94.31379178 40.77688272 92.31509385 40.75195312 90.31640625 C40.71698966 87.16773799 40.68758343 84.01944326 40.67407227 80.87060547 C40.65847296 77.82994067 40.61816639 74.79037085 40.57421875 71.75 C40.57612717 70.82356689 40.57803558 69.89713379 40.58000183 68.94262695 C40.4488319 61.83389739 39.21749487 54.21749487 34 49 C27.72665362 47.28689387 22.5614005 48.02033752 16.6171875 50.40625 C9.47999311 54.59716822 9.47999311 54.59716822 5.27005005 61.37765503 C5.01372817 64.14855069 4.99567841 66.82377626 5.0703125 69.60546875 C5.06417938 70.60709549 5.05804626 71.60872223 5.05172729 72.64070129 C5.03884895 75.82427495 5.0797077 79.00427041 5.125 82.1875 C5.13846584 85.38058712 5.14076335 88.57332731 5.13400269 91.76643372 C5.13322318 93.74864565 5.14599733 95.73092013 5.17385864 97.7129364 C5.17981049 98.61099503 5.18576233 99.50905365 5.19189453 100.43432617 C5.2027005 101.22151535 5.21350647 102.00870453 5.22463989 102.81974792 C4.96522634 105.33749729 4.36051067 106.87082676 3 109 C-0.7373856 111.4915904 -2.57331583 111.45793285 -7 111 C-9.875 109.5 -9.875 109.5 -12 107 C-13.01056454 101.20529931 -13.15325488 95.50447964 -13.16113281 89.6340332 C-13.16609772 88.73381439 -13.17106262 87.83359558 -13.17617798 86.90609741 C-13.1906801 83.95431738 -13.19757837 81.00259092 -13.203125 78.05078125 C-13.20888244 75.98911031 -13.21464009 73.92743937 -13.22039795 71.86576843 C-13.23087115 67.55626172 -13.23673913 63.24677349 -13.24023438 58.93725586 C-13.24573829 53.41581101 -13.26982212 47.89461035 -13.29820633 42.37324238 C-13.31681839 38.1207558 -13.32203735 33.86832854 -13.32357025 29.61580467 C-13.32659608 27.57963908 -13.33462223 25.5434745 -13.34775543 23.50734901 C-13.36480004 20.66396913 -13.36294055 17.82119337 -13.35644531 14.9777832 C-13.3656601 14.13870926 -13.37487488 13.29963531 -13.3843689 12.43513489 C-13.35121785 7.80501876 -13.01080294 4.75971996 -10 1 C-6.80962203 -0.59518898 -3.47144801 -0.3780785 0 0 Z " fill="#CBFD01" transform="translate(741,586)"/>
<path d="M0 0 C8.17844251 6.49172733 12.7620562 15.72518711 14.12890625 25.9765625 C14.40078519 30.29943759 14.05424103 33.77922594 12.25390625 37.7890625 C7.78582565 41.52830726 3.35841612 41.19564318 -2.17578125 41.1171875 C-3.5386174 41.11437775 -3.5386174 41.11437775 -4.9289856 41.11151123 C-6.84706298 41.10480258 -8.76512696 41.0909117 -10.68310547 41.0703125 C-13.60397212 41.03924461 -16.52429716 41.0293455 -19.4453125 41.0234375 C-21.31380859 41.01426259 -23.18229925 41.00388528 -25.05078125 40.9921875 C-25.91766571 40.98793762 -26.78455017 40.98368774 -27.67770386 40.97930908 C-32.46378819 40.9235189 -37.0248292 40.58403838 -41.74609375 39.7890625 C-38.44989468 48.31715591 -38.44989468 48.31715591 -32.12109375 54.4765625 C-22.71028246 58.13632245 -13.89699952 57.35441915 -4.35546875 54.47265625 C-0.44354983 53.44782719 3.25793675 53.05121751 7.25390625 53.7890625 C9.81640625 55.4140625 9.81640625 55.4140625 11.25390625 57.7890625 C11.81640625 60.7265625 11.81640625 60.7265625 11.25390625 63.7890625 C6.57601306 70.12685327 -1.41946805 72.98688952 -8.9609375 74.4765625 C-12.7468861 74.90135337 -16.50084699 75.00450646 -20.30859375 75.0390625 C-21.01693359 75.0484082 -21.72527344 75.05775391 -22.45507812 75.06738281 C-32.58961499 75.00633139 -41.27603535 71.83193539 -48.796875 64.8984375 C-56.83507094 56.1545327 -60.15288964 46.19565979 -60.05859375 34.4140625 C-60.0529541 33.66946777 -60.04731445 32.92487305 -60.04150391 32.15771484 C-59.80241607 21.28040167 -56.10621943 11.01372458 -48.9296875 2.6796875 C-35.34554553 -10.16350127 -15.18573008 -9.89631848 0 0 Z M-29.74609375 8.7890625 C-29.74609375 9.4490625 -29.74609375 10.1090625 -29.74609375 10.7890625 C-30.82890625 11.0984375 -30.82890625 11.0984375 -31.93359375 11.4140625 C-36.4122762 13.60364058 -38.89627394 17.04895527 -41.05859375 21.4765625 C-41.88857888 23.86624195 -41.88857888 23.86624195 -41.74609375 26.7890625 C-29.53609375 26.4590625 -17.32609375 26.1290625 -4.74609375 25.7890625 C-5.69704857 19.13237874 -6.2056074 16.31833778 -10.74609375 11.7890625 C-16.66826562 7.56780792 -22.7167907 6.53968552 -29.74609375 8.7890625 Z " fill="#CAFC08" transform="translate(404.74609375,623.2109375)"/>
<path d="M0 0 C7.48747277 4.52917572 11.869863 9.62749819 15.55078125 17.54296875 C15.96328125 18.42984375 16.37578125 19.31671875 16.80078125 20.23046875 C18.72199575 26.15421345 19.91935627 33.68288535 17.7890625 39.69140625 C16.18362822 42.09196098 15.28844496 42.5476759 12.55078125 43.54296875 C9.58806045 43.72437842 6.72280327 43.79929241 3.76171875 43.7734375 C2.90325348 43.77297928 2.04478821 43.77252106 1.16030884 43.77204895 C-0.65697612 43.76903034 -2.47425858 43.76115572 -4.29150391 43.7487793 C-7.04338998 43.73067161 -9.79493589 43.72826881 -12.546875 43.72851562 C-14.31901327 43.72359385 -16.09114929 43.71776269 -17.86328125 43.7109375 C-18.67407135 43.70982468 -19.48486145 43.70871185 -20.32022095 43.70756531 C-26.07632206 43.66091293 -31.73174959 43.2005951 -37.44921875 42.54296875 C-34.11995563 50.12956392 -31.41662565 55.0592653 -23.82421875 58.85546875 C-14.57070333 60.74044411 -6.26749411 59.35637923 2.67504883 56.79052734 C5.92280439 55.90832725 8.13965929 55.4347494 11.4296875 56.30078125 C13.55078125 57.54296875 13.55078125 57.54296875 15.55078125 59.54296875 C16.08407028 63.58072852 16.08551157 65.74087327 13.80078125 69.16796875 C3.50822206 78.07442398 -10.67265194 78.03637275 -23.44921875 77.54296875 C-33.90535164 76.38485277 -42.00641101 70.91199914 -48.60546875 63.01171875 C-54.98576103 54.46861553 -56.58045883 42.02869413 -55.44921875 31.54296875 C-53.58681497 20.09743665 -50.56487281 9.97853783 -40.91796875 2.609375 C-28.65106965 -5.09438543 -13.17466672 -6.50533336 0 0 Z M-32.94921875 17.73046875 C-36.331345 21.59172955 -35.71492042 23.66858212 -36.44921875 29.54296875 C-24.23921875 29.54296875 -12.02921875 29.54296875 0.55078125 29.54296875 C0.55078125 22.96153341 -0.19774998 21.10444045 -4.44921875 16.54296875 C-13.24289628 9.85977383 -24.9519127 9.33042066 -32.94921875 17.73046875 Z " fill="#CBFD02" transform="translate(542.44921875,620.45703125)"/>
<path d="M0 0 C7.04992332 4.81394017 10.81874836 11.39634649 12.59375 19.6796875 C13.41474916 25.317115 13.76524258 30.799551 13.796875 36.4921875 C13.80257507 37.30534424 13.80827515 38.11850098 13.81414795 38.95629883 C13.82353075 40.66388676 13.83010491 42.37149226 13.83398438 44.07910156 C13.84372432 46.67284816 13.87482478 49.26581249 13.90625 51.859375 C13.91277871 53.52864119 13.9180297 55.19791297 13.921875 56.8671875 C13.9342218 57.63200439 13.9465686 58.39682129 13.95928955 59.18481445 C13.93701467 64.63543337 12.82260838 68.69187873 10.59375 73.6796875 C8.56617533 75.55707145 7.37271108 75.65761168 4.6640625 75.734375 C2.4825936 75.61451407 0.66409927 75.38299086 -1.40625 74.6796875 C-3.40625 72.1171875 -3.40625 72.1171875 -4.40625 69.6796875 C-6.894186 70.66689342 -9.37338858 71.66568705 -11.8359375 72.71484375 C-21.66215788 76.84311206 -31.15706188 78.33853706 -41.3046875 74.58984375 C-47.07712699 72.0898839 -50.76665053 68.6711382 -54.40625 63.6796875 C-56.71180938 56.95270728 -56.45603448 48.30638954 -53.84375 41.7421875 C-49.90263943 34.27049871 -44.11333108 31.18427501 -36.34765625 28.44140625 C-29.22279777 26.59632338 -22.21609248 26.54812649 -14.90625 26.6171875 C-13.52953125 26.62395508 -13.52953125 26.62395508 -12.125 26.63085938 C-9.88534609 26.64252424 -7.64583455 26.65889136 -5.40625 26.6796875 C-5.61121094 26.06480469 -5.81617188 25.44992187 -6.02734375 24.81640625 C-7.15364583 21.4375 -8.27994792 18.05859375 -9.40625 14.6796875 C-13.87871585 13.56378513 -18.26418747 13.53081489 -22.84375 13.5546875 C-23.58173828 13.55082031 -24.31972656 13.54695312 -25.08007812 13.54296875 C-29.30961517 13.55048793 -33.23345762 13.91993539 -37.40625 14.6796875 C-39.13242787 14.81110953 -40.862876 14.89748519 -42.59375 14.9296875 C-43.43292969 14.95546875 -44.27210938 14.98125 -45.13671875 15.0078125 C-47.40625 14.6796875 -47.40625 14.6796875 -49.17578125 13.375 C-51.2873928 10.46566853 -50.8834729 8.13955351 -50.40625 4.6796875 C-40.17780153 -9.98108864 -13.59624456 -7.46027705 0 0 Z M-33.40625 43.6796875 C-34.12425781 43.958125 -34.84226562 44.2365625 -35.58203125 44.5234375 C-37.56288117 45.53712925 -37.56288117 45.53712925 -38.234375 47.625 C-38.37359375 48.34429688 -38.5128125 49.06359375 -38.65625 49.8046875 C-38.90375 51.0834375 -39.15125 52.3621875 -39.40625 53.6796875 C-38.74625 53.6796875 -38.08625 53.6796875 -37.40625 53.6796875 C-37.07625 55.3296875 -36.74625 56.9796875 -36.40625 58.6796875 C-27.16089839 61.64517764 -19.63113125 61.03525907 -10.84375 56.8046875 C-7.25935175 54.94956331 -5.67016515 54.07556023 -3.40625 50.6796875 C-3.12793528 48.42846253 -3.12793528 48.42846253 -3.21875 46.0546875 C-3.22841797 44.85972656 -3.22841797 44.85972656 -3.23828125 43.640625 C-3.19442102 41.67679016 -3.19442102 41.67679016 -4.40625 40.6796875 C-19.23425613 39.87987094 -19.23425613 39.87987094 -33.40625 43.6796875 Z " fill="#CBFD01" transform="translate(868.40625,621.3203125)"/>
<path d="M0 0 C7.95327505 8.5081547 12.43571166 18.10691907 13.1875 29.75 C13.06207181 33.24944647 12.67971273 33.88538303 10.4375 36.875 C5.70342542 40.31796333 1.26252225 40.02306902 -4.4453125 40.0078125 C-5.6331282 40.00924759 -5.6331282 40.00924759 -6.84494019 40.01071167 C-8.52097656 40.0113914 -10.19701558 40.00955152 -11.87304688 40.00537109 C-14.40761425 40.00006259 -16.94200094 40.00530089 -19.4765625 40.01171875 C-27.48965467 40.01468371 -35.35077087 39.90074424 -43.3125 38.875 C-42.4085603 40.81847036 -41.488825 42.75459907 -40.5625 44.6875 C-40.05203125 45.76644531 -39.5415625 46.84539063 -39.015625 47.95703125 C-36.6904415 51.94077453 -34.69947856 53.30220084 -30.484375 55.04296875 C-22.09514038 57.2435931 -13.72586945 56.34651024 -5.62890625 53.55859375 C-1.8359232 52.43924799 1.78945006 52.17778782 5.6875 52.875 C8.3125 54.4375 8.3125 54.4375 9.6875 56.875 C9.88510042 60.4318075 9.61163784 62.70278976 7.36328125 65.5546875 C3.04469278 69.6014767 -1.62539693 71.47834395 -7.3125 72.875 C-8.05628906 73.060625 -8.80007813 73.24625 -9.56640625 73.4375 C-13.25370118 74.02494955 -16.90159891 74.05922524 -20.625 74.0625 C-21.34623047 74.07474609 -22.06746094 74.08699219 -22.81054688 74.09960938 C-33.24596617 74.12768674 -43.35689788 70.84766369 -51.125 63.6875 C-58.66615914 55.52383952 -61.70511101 45.02822477 -61.625 34.125 C-61.62008545 33.33295166 -61.6151709 32.54090332 -61.61010742 31.72485352 C-61.39964154 21.14651457 -58.8364272 10.86123012 -51.4921875 2.90234375 C-36.41447668 -11.02236565 -17.00245415 -10.90723474 0 0 Z M-38.8125 12.25 C-43.24956522 16.90891848 -43.3125 19.33480756 -43.3125 25.875 C-30.7725 25.875 -18.2325 25.875 -5.3125 25.875 C-6.1958034 17.89662104 -6.1958034 17.89662104 -10.3125 11.875 C-10.9725 11.875 -11.6325 11.875 -12.3125 11.875 C-12.3125 11.215 -12.3125 10.555 -12.3125 9.875 C-21.31242786 5.65628381 -30.7960893 6.07149809 -38.8125 12.25 Z " fill="#CAFB09" transform="translate(1137.3125,624.125)"/>
<path d="M0 0 C8.65293858 8.99905612 9.20559332 22.22923201 9.265625 34.00390625 C9.27132507 34.8860228 9.27702515 35.76813934 9.28289795 36.67698669 C9.29228682 38.53000714 9.29885738 40.38304381 9.30273438 42.23608398 C9.31248471 45.05807483 9.3435837 47.87934999 9.375 50.70117188 C9.3815274 52.51041239 9.3867789 54.31965805 9.390625 56.12890625 C9.4029718 56.96450577 9.4153186 57.80010529 9.42803955 58.661026 C9.4078266 64.01213266 8.61476567 67.76479377 6.0625 72.5 C3.19641871 73.93304064 1.24949217 73.80644155 -1.9375 73.5 C-7.51644737 70.34210526 -7.51644737 70.34210526 -8.9375 67.5 C-9.81792969 67.92152344 -10.69835937 68.34304688 -11.60546875 68.77734375 C-12.76691406 69.32519531 -13.92835938 69.87304688 -15.125 70.4375 C-16.27355469 70.98277344 -17.42210937 71.52804687 -18.60546875 72.08984375 C-27.03377836 75.65680714 -37.25160172 75.90654461 -45.8359375 72.61328125 C-51.38823059 69.67201075 -56.29318003 65.25528464 -58.9375 59.5 C-61.07233894 52.2173225 -60.43291439 45.21975582 -56.9375 38.5 C-52.25588469 31.18497608 -44.39571378 27.0024667 -36 25.125 C-27.42406962 23.87120901 -18.57975717 24.34763895 -9.9375 24.5 C-10.5975 20.87 -11.2575 17.24 -11.9375 13.5 C-21.73259458 10.23496847 -30.30722874 9.81887943 -40.3125 12.625 C-44.3213161 13.59264527 -46.9547641 13.51520719 -50.9375 12.5 C-53.56323913 10.83703188 -53.90713809 9.58729049 -54.9375 6.625 C-54.9375 3.5 -54.9375 3.5 -53.125 0.875 C-38.69603572 -9.87599299 -14.51623472 -11.23837527 0 0 Z M-41.6875 44.45703125 C-43.4585875 47.35165239 -43.41425837 49.16269143 -42.9375 52.5 C-41.00590549 55.76885225 -39.57031913 57.2046844 -36.125 58.8125 C-27.70035144 60.62958106 -20.84897868 58.81791329 -13.5625 54.5 C-10.51158268 52.22885116 -10.51158268 52.22885116 -7.9375 49.5 C-7.53796962 47.02288234 -7.53796962 47.02288234 -7.6875 44.375 C-7.70296875 43.48554687 -7.7184375 42.59609375 -7.734375 41.6796875 C-7.70137869 39.52330622 -7.70137869 39.52330622 -8.9375 38.5 C-19.0359433 37.49293378 -34.31084235 36.20768865 -41.6875 44.45703125 Z " fill="#CBFD01" transform="translate(193.9375,623.5)"/>
<path d="M0 0 C6.85597859 7.29326196 9.40878324 15.07978117 9.6875 24.9375 C9.71948486 25.7828833 9.75146973 26.6282666 9.78442383 27.49926758 C9.87934216 30.33274617 9.94423905 33.16548516 10 36 C10.02191406 37.06283203 10.04382813 38.12566406 10.06640625 39.22070312 C10.1249324 42.5430374 10.16117008 45.86476308 10.1875 49.1875 C10.20063232 50.22575928 10.21376465 51.26401855 10.22729492 52.33374023 C10.24240162 66.71648334 10.24240162 66.71648334 6.25 72.5625 C3.23513978 74.4886607 1.52331287 74.50333041 -2 74 C-4.75 72.9375 -4.75 72.9375 -7 71 C-9.13867295 65.29314704 -9.29428146 59.98570604 -9.30859375 53.9375 C-9.33374439 51.98697606 -9.35914255 50.03645529 -9.38476562 48.0859375 C-9.41351423 45.03809369 -9.43755961 41.9903048 -9.45629883 38.94238281 C-9.47801615 35.98214416 -9.51744571 33.02252317 -9.55859375 30.0625 C-9.55870956 29.15814209 -9.55882538 28.25378418 -9.5589447 27.32202148 C-9.64464448 21.81083666 -10.34788277 17.86830298 -13 13 C-16.83394854 10.55053288 -20.54453307 10.56175735 -25 11 C-32.14197833 12.94887317 -38.24694155 16.21301655 -43 22 C-44.08203322 25.39116739 -44.02980997 28.56093105 -43.9296875 32.09765625 C-43.93582062 33.05014755 -43.94195374 34.00263885 -43.94827271 34.98399353 C-43.96114433 38.01153865 -43.92032937 41.03531766 -43.875 44.0625 C-43.86150935 47.09235486 -43.85925939 50.12184269 -43.86599731 53.15171814 C-43.86677327 55.03161722 -43.85413509 56.91158423 -43.82614136 58.79127502 C-43.79293851 63.57695161 -43.96823239 67.55798102 -46 72 C-49.00648366 73.97568926 -50.95832387 74 -54.5625 74 C-58.05830282 72.98303918 -59.31148505 72.25387212 -61.197052 69.18429565 C-63.11490747 63.96706693 -62.54528303 58.14914041 -62.49609375 52.66015625 C-62.49624892 51.25060451 -62.49774084 49.84105234 -62.50050354 48.4315033 C-62.50188458 45.48352087 -62.48938156 42.5360267 -62.46655273 39.58813477 C-62.43819451 35.82441845 -62.44090197 32.06151424 -62.45364285 28.29773808 C-62.46062559 25.38847518 -62.45278092 22.47939727 -62.44038582 19.570158 C-62.43589461 18.18319854 -62.43551398 16.79621904 -62.43945122 15.40925789 C-62.45971474 1.98917385 -62.45971474 1.98917385 -59 -4 C-57.44070032 -5.55929968 -55.91140432 -5.31941003 -53.75 -5.4375 C-50.99535143 -5.42431986 -49.52214386 -5.38832209 -47.29296875 -3.73046875 C-44 0.1698487 -44 0.1698487 -44 3 C-43.443125 2.60167969 -42.88625 2.20335937 -42.3125 1.79296875 C-29.61809614 -7.02020691 -12.86678602 -11.36997869 0 0 Z " fill="#CBFB08" transform="translate(961,623)"/>
<path d="M0 0 C2.4375 1.9375 2.4375 1.9375 3.4375 3.9375 C4.00440141 10.17341549 4.00440141 10.17341549 2 12.875 C-2.85560423 14.88829932 -7.89335642 14.18028452 -13 13.4375 C-20.08811226 12.44267723 -26.84209343 12.27733907 -33.5625 14.9375 C-35.7144437 18.16541555 -35.76336443 19.22150809 -35.5625 22.9375 C-34.07363281 23.39189453 -34.07363281 23.39189453 -32.5546875 23.85546875 C-28.94841355 24.96268556 -25.35067341 26.09534636 -21.75634766 27.24072266 C-20.36434957 27.68282844 -18.97094074 28.12053591 -17.57568359 28.55224609 C-8.41582212 31.4053177 -0.05777043 34.69459435 5.4375 42.9375 C7.40835713 49.44132854 7.48635757 57.83978487 4.4375 63.9375 C-0.34517278 70.89411496 -5.72609596 74.46356067 -13.8671875 76.51953125 C-26.15957965 78.42574279 -39.90209548 77.46553057 -50.875 71.3125 C-53.31207567 69.52172064 -54.36964978 68.54732366 -55.28515625 65.65234375 C-55.44292633 63.16443095 -55.30385748 61.3154391 -54.5625 58.9375 C-51.91989404 56.29489404 -50.11123015 56.00334762 -46.4375 55.5625 C-43.12564856 55.88300175 -40.58503834 56.47676882 -37.4375 57.4375 C-29.42296151 59.77000707 -20.31151721 60.4924037 -12.5625 56.9375 C-11.42606773 55.02820686 -11.42606773 55.02820686 -11.1875 52.8125 C-10.98125 51.53375 -10.775 50.255 -10.5625 48.9375 C-11.14298096 48.83010498 -11.72346191 48.72270996 -12.3215332 48.61206055 C-19.21962515 47.28950171 -25.98291199 45.62715716 -32.75 43.75 C-34.31137695 43.35071289 -34.31137695 43.35071289 -35.90429688 42.94335938 C-43.67303594 40.76811244 -48.76281688 37.64605798 -52.9375 30.625 C-55.02797902 21.63594023 -55.0317586 14.17246127 -50.4453125 5.9296875 C-45.79993544 -0.41991073 -38.09499598 -3.11523232 -30.609375 -4.6796875 C-19.97898316 -6.01530083 -9.284881 -5.86066956 0 0 Z " fill="#CBFD03" transform="translate(63.5625,621.0625)"/>
<path d="M0 0 C2.9375 2.125 2.9375 2.125 5 5 C4.79139573 10.28259631 3.64983095 13.12604805 0.1875 17.0625 C-1.00939453 18.45855469 -1.00939453 18.45855469 -2.23046875 19.8828125 C-3.68465517 21.52871869 -5.14854333 23.16546713 -6.61572266 24.79980469 C-7.73870214 26.05262155 -8.85728995 27.30938893 -9.97143555 28.57006836 C-11.06097763 29.80052863 -12.1625266 31.02047601 -13.27661133 32.22875977 C-14.98504645 34.09680907 -14.98504645 34.09680907 -17 37 C-16.53407414 40.4643247 -15.10171754 42.4809956 -12.9375 45.1875 C-12.3084375 45.97511719 -11.679375 46.76273438 -11.03125 47.57421875 C-9.05298908 49.9367188 -7.01207075 52.22196173 -4.9375 54.5 C4.87720688 65.50320654 4.87720688 65.50320654 5.1875 71.8125 C3.75252055 75.66428693 2.58490206 77.00838775 -1 79 C-3.8125 79.6875 -3.8125 79.6875 -7 79 C-13.66000601 74.80448961 -18.54226486 68.00284639 -23.484375 61.98828125 C-25.56195154 59.52035259 -27.67571295 57.23196724 -30 55 C-35.95085249 61.42294517 -41.65831637 67.91442198 -47.08984375 74.78515625 C-49.50720272 77.58810622 -51.1842768 78.87586821 -54.875 79.4375 C-58 79 -58 79 -60.875 76.9375 C-63 74 -63 74 -63.6875 70.6875 C-62.4704325 64.1595925 -58.05951572 60.20391172 -53.77734375 55.33203125 C-53.19944092 54.67203125 -52.62153809 54.01203125 -52.02612305 53.33203125 C-50.85741043 52.00315279 -49.68066131 50.68129217 -48.49536133 49.3671875 C-44.27292609 44.7364771 -44.27292609 44.7364771 -42 39 C-42.70119612 37.0819262 -42.70119612 37.0819262 -44.25 35.4375 C-44.81074219 34.756875 -45.37148438 34.07625 -45.94921875 33.375 C-46.62597656 32.59125 -47.30273438 31.8075 -48 31 C-51.34066676 27.0060709 -54.6715484 23.00411066 -58 19 C-58.57878906 18.32582031 -59.15757812 17.65164063 -59.75390625 16.95703125 C-62.15441369 13.96836529 -63.31947829 11.59651278 -63.5 7.8125 C-63 4 -63 4 -62.0625 1.5 C-59.1656657 -0.60678858 -56.92175998 -0.75348492 -53.3828125 -0.54296875 C-43.4295534 1.72506898 -36.58835774 15.21521608 -31 23 C-26.50826447 22.1531053 -25.04316757 20.06171452 -22.1875 16.5 C-21.75099121 15.96262207 -21.31448242 15.42524414 -20.86474609 14.87158203 C-17.66156432 10.90848274 -14.57200183 6.86008291 -11.5703125 2.7421875 C-8.04648783 -1.16732943 -4.95220999 -1.51598265 0 0 Z " fill="#CBFD01" transform="translate(633,618)"/>
<path d="M0 0 C0.95035673 3.54799846 1.38516618 5.87412963 0.1875 9.375 C-1 11 -1 11 -3 12 C-7.00617563 12.32049405 -10.07879165 12.11105496 -13.75 10.5625 C-22.67515653 6.97527363 -32.15210318 7.2357632 -41 11 C-45.87858172 14.63972928 -48.78727821 20.09675097 -50 26 C-50.8500958 33.77680231 -50.12595295 39.37438212 -46 46 C-45.67257812 46.70898438 -45.34515625 47.41796875 -45.0078125 48.1484375 C-43.54429077 50.83723324 -41.86918398 51.08707782 -39 52 C-38.13375 52.37125 -37.2675 52.7425 -36.375 53.125 C-27.56339535 55.40949009 -20.42764192 53.68595459 -11.96484375 50.828125 C-7.46305333 49.57070791 -4.21515648 49.89242176 0 52 C1.20715882 56.74815801 1.62734012 58.81502421 -0.6875 63.1875 C-6.36767156 69.04367687 -15.97769387 71.64944977 -23.91015625 72.203125 C-36.4710137 72.38990355 -46.34698217 70.38156314 -56 62 C-65.13061518 53.07968689 -69.13744075 43.95185544 -69.375 31.1875 C-69.375 21.61907698 -66.85892039 13.68983302 -61 6 C-60.443125 5.175 -59.88625 4.35 -59.3125 3.5 C-52.25909446 -4.12530328 -41.7876404 -9.25302201 -31.40234375 -9.96484375 C-19.82667271 -10.13424381 -8.77743834 -8.14161683 0 0 Z " fill="#CBF913" transform="translate(715,626)"/>
<path d="M0 0 C0 4.29 0 8.58 0 13 C1.794375 12.79375 3.58875 12.5875 5.4375 12.375 C10.78885561 11.93169243 15.99399801 11.80005294 21 14 C23.48038907 17.7205836 23.46337203 19.59796571 23 24 C21.5546875 26.20703125 21.5546875 26.20703125 19 28 C15.90123191 28.48594147 12.87672201 28.37702308 9.75 28.25 C8.90953125 28.23195313 8.0690625 28.21390625 7.203125 28.1953125 C5.13492605 28.14830798 3.06731559 28.07656724 1 28 C1.11871643 33.71098536 1.24299438 39.42181325 1.37231445 45.13256836 C1.41549192 47.07329054 1.45717831 49.01404652 1.49731445 50.95483398 C1.55543566 53.75254477 1.61900716 56.55008814 1.68359375 59.34765625 C1.70030624 60.2083522 1.71701874 61.06904816 1.73423767 61.95582581 C1.85009844 66.7210352 2.22023199 71.29641714 3 76 C4.18078125 75.96519531 5.3615625 75.93039062 6.578125 75.89453125 C8.13540242 75.86638768 9.69269525 75.83908813 11.25 75.8125 C12.02730469 75.78736328 12.80460937 75.76222656 13.60546875 75.73632812 C17.05699681 75.69207777 19.39184967 75.69356033 22.51171875 77.265625 C24.58758369 79.6847432 24.61650987 81.95632071 24.4453125 85.06640625 C24 87 24 87 21.9375 89.375 C14.57981218 93.44521028 6.39237265 94.41501977 -1.75390625 92.27734375 C-7.74305824 90.07269317 -12.18597366 87.44665005 -15.25 81.625 C-17.16834044 74.91080845 -17.157601 68.24312403 -17.125 61.3125 C-17.12306641 60.31532959 -17.12113281 59.31815918 -17.11914062 58.29077148 C-17.06345393 48.50924808 -16.59873471 38.76151409 -16 29 C-16.77085938 28.95101562 -17.54171875 28.90203125 -18.3359375 28.8515625 C-19.33882812 28.77679687 -20.34171875 28.70203125 -21.375 28.625 C-22.87160156 28.52058594 -22.87160156 28.52058594 -24.3984375 28.4140625 C-27 28 -27 28 -29 26 C-29.47976854 22.38937077 -29.50784124 20.67021225 -27.27734375 17.7265625 C-26.50519531 17.03304687 -25.73304687 16.33953125 -24.9375 15.625 C-21.85809735 12.7627966 -18.99900151 9.92214419 -16.3125 6.6875 C-11.26523676 0.886048 -7.90183575 -1.89644058 0 0 Z " fill="#CBFD01" transform="translate(104,605)"/>
<path d="M0 0 C2.47240468 2.24061675 2.94309843 3.82929529 4 7 C4.10714894 9.9909036 4.15727388 12.95884347 4.16113281 15.95019531 C4.16609772 16.86597855 4.17106262 17.78176178 4.17617798 18.72529602 C4.19080073 21.75957996 4.19760233 24.79381159 4.203125 27.828125 C4.20887701 29.93699139 4.21463474 32.04585776 4.22039795 34.15472412 C4.2309087 38.57987715 4.23675067 43.00501202 4.24023438 47.43017578 C4.24571474 53.09393304 4.26973281 58.75744936 4.29820633 64.42113113 C4.31685368 68.77922257 4.32203947 73.13725626 4.32357025 77.49538422 C4.32659331 79.58292709 4.33461009 81.67046904 4.34775543 83.75797272 C4.36485715 86.68290888 4.36292534 89.60726034 4.35644531 92.53222656 C4.3656601 93.39066666 4.37487488 94.24910675 4.3843689 95.13356018 C4.34183418 101.27898039 3.53435172 106.46564828 -1 111 C-4.76962573 111.35562507 -7.36033267 111.26421042 -10.875 109.8125 C-13.60490461 107.48405195 -13.55053963 106.54289083 -14 103 C-14.14559135 99.86879533 -14.1571568 96.74164633 -14.16113281 93.60742188 C-14.16609772 92.66862686 -14.17106262 91.72983185 -14.17617798 90.7625885 C-14.1907545 87.66463483 -14.1975927 84.56673229 -14.203125 81.46875 C-14.20887844 79.31311034 -14.21463615 77.15747069 -14.22039795 75.00183105 C-14.23089389 70.48608156 -14.23674633 65.97034981 -14.24023438 61.45458984 C-14.24572807 55.6673855 -14.2697808 49.88041536 -14.29820633 44.09328461 C-14.31682113 39.64263215 -14.32203761 35.19203637 -14.32357025 30.74134827 C-14.32659794 28.60749526 -14.33463034 26.47364328 -14.34775543 24.33982849 C-14.36479781 21.35722928 -14.36294045 18.37520618 -14.35644531 15.39257812 C-14.3656601 14.51138809 -14.37487488 13.63019806 -14.3843689 12.7223053 C-14.35213901 8.00097663 -14.09951143 4.82035824 -11 1 C-7.55998502 -0.72000749 -3.76201128 -0.5108052 0 0 Z " fill="#CBF911" transform="translate(327,586)"/>
<path d="M0 0 C0.28875 -0.804375 0.5775 -1.60875 0.875 -2.4375 C2 -5 2 -5 4 -6 C11.10601719 -6.45845272 11.10601719 -6.45845272 14.4375 -4.75 C17.65678397 -1.14440196 17.12640027 3.22648462 17.12939453 7.8605957 C17.13202301 8.88336105 17.13202301 8.88336105 17.13470459 9.92678833 C17.13909842 12.17647869 17.13619282 14.42609011 17.1328125 16.67578125 C17.13348648 18.2451326 17.1344573 19.81448385 17.13571167 21.38383484 C17.1371855 24.67313633 17.13504506 27.96241065 17.13037109 31.25170898 C17.1246881 35.45468733 17.12794572 39.65760161 17.13394356 43.86057758 C17.13756972 47.1026202 17.13640091 50.34464782 17.13381577 53.5866909 C17.13315144 55.13554072 17.13395753 56.68439193 17.13629532 58.23324013 C17.13885407 60.40593657 17.13493556 62.57853174 17.12939453 64.7512207 C17.12859894 65.98491898 17.12780334 67.21861725 17.12698364 68.48970032 C16.99796668 72.0562084 16.56844514 75.47900093 16 79 C14.68 79 13.36 79 12 79 C12 52.27 12 25.54 12 -2 C9.69 -2 7.38 -2 5 -2 C4.01 0.64 3.02 3.28 2 6 C1.01 6 0.02 6 -1 6 C-1 5.34 -1 4.68 -1 4 C-1.94875 3.690625 -2.8975 3.38125 -3.875 3.0625 C-7 2 -7 2 -9 1 C-9 0.01 -9 -0.98 -9 -2 C-12.2914911 -2.08857863 -15.58266805 -2.1409104 -18.875 -2.1875 C-20.25171875 -2.22520508 -20.25171875 -2.22520508 -21.65625 -2.26367188 C-31.2806148 -2.3653377 -39.65279567 -0.45164957 -47 6 C-47.67933594 6.59167969 -48.35867188 7.18335938 -49.05859375 7.79296875 C-51.34648758 10.39389433 -52.15993586 12.57840648 -53.1875 15.875 C-53.51105469 16.88304687 -53.83460938 17.89109375 -54.16796875 18.9296875 C-57.42870921 30.96227906 -56.79223304 40.91430955 -51 52 C-50.6390625 52.69222656 -50.278125 53.38445313 -49.90625 54.09765625 C-45.82558843 60.7287313 -38.19430719 64.54147298 -31 67 C-20.9991188 68.14295785 -12.04338985 66.46742393 -4.10546875 60.2421875 C-1.54829989 58.73350531 0.08049707 58.90429833 3 59 C3.11689626 62.37470504 3.18747934 65.7488843 3.25 69.125 C3.28351563 70.07632813 3.31703125 71.02765625 3.3515625 72.0078125 C3.43337216 77.89810825 3.03708589 81.38417103 -1 86 C-3 88.046875 -3 88.046875 -5 89.75 C-5.66 90.32234375 -6.32 90.8946875 -7 91.484375 C-13.49292724 96.40479643 -21.18334274 95.77147009 -29 95 C-33.30018938 94.23157485 -37.47830213 93.08439454 -41.671875 91.875 C-45.07121777 90.8304868 -45.07121777 90.8304868 -49 91 C-49.33 92.65 -49.66 94.3 -50 96 C-47.45986091 96.8175507 -44.91806769 97.62915186 -42.375 98.4375 C-41.66214844 98.66759766 -40.94929687 98.89769531 -40.21484375 99.13476562 C-27.81603932 103.05915785 -15.36961825 103.35261755 -3 99 C5.19693444 94.60878512 7.93901313 88.3851502 11 80 C11.66 80 12.32 80 13 80 C13.63092337 86.94015706 12.24668568 91.43074555 8 97 C0.3491135 104.6508865 -10.02661587 107.90151186 -20.625 108.1875 C-31.22875201 108.0287612 -40.47747343 105.65760734 -50 101 C-50.93070313 100.54496094 -51.86140625 100.08992187 -52.8203125 99.62109375 C-55 98 -55 98 -55.55859375 95.84375 C-55.51863281 95.0703125 -55.47867188 94.296875 -55.4375 93.5 C-55.41558594 92.7265625 -55.39367187 91.953125 -55.37109375 91.15625 C-55 89 -55 89 -53 86 C-48.11099804 84.51609471 -44.3565614 85.49241279 -39.625 86.9375 C-28.86466782 89.91129659 -18.29957789 90.90634438 -8 86 C-7.01 85.67 -6.02 85.34 -5 85 C-2.38348793 78.87327009 -1.62691849 72.59110674 -2 66 C-2.94875 66.598125 -3.8975 67.19625 -4.875 67.8125 C-12.6315984 72.21574071 -21.03781075 74.46570486 -29.8125 72.30859375 C-40.24407124 69.12856119 -49.93465838 64.40450575 -56 55 C-61.48240629 43.24959871 -63.51190024 28.79785321 -59.08984375 16.3671875 C-54.8292332 7.11295813 -48.62856727 1.26810037 -40 -4 C-39.37738281 -4.38285156 -38.75476563 -4.76570312 -38.11328125 -5.16015625 C-26.04591443 -10.99045707 -10.49446366 -6.99630911 0 0 Z " fill="#CBF812" transform="translate(1045,624)"/>
<path d="M0 0 C2.4375 1.1875 2.4375 1.1875 4 3 C5.14767542 7.16204039 5.11477987 11.19025235 5.09765625 15.48828125 C5.0962413 16.19147995 5.09482635 16.89467865 5.09336853 17.6191864 C5.08780109 19.85033544 5.07525475 22.08138164 5.0625 24.3125 C5.05748079 25.83137875 5.05291862 27.35025909 5.04882812 28.86914062 C5.03784236 32.57946012 5.02060034 36.28972001 5 40 C5.61053223 39.58790283 6.22106445 39.17580566 6.85009766 38.7512207 C7.65495605 38.21070068 8.45981445 37.67018066 9.2890625 37.11328125 C10.08521973 36.57743408 10.88137695 36.04158691 11.70166016 35.48950195 C19.3274437 30.54740451 27.74775505 29.00380273 36.6875 30.625 C41.2884284 31.86625766 45.44146068 33.78948409 49 37 C50.5 40.3125 50.5 40.3125 51 43 C50.01 43.495 50.01 43.495 49 44 C49 43.34 49 42.68 49 42 C48.34 42 47.68 42 47 42 C47 41.34 47 40.68 47 40 C41.38769133 36.97798764 36.3854863 35.72199348 30 35.75 C28.824375 35.74484375 27.64875 35.7396875 26.4375 35.734375 C22.96768857 36.00249679 20.26725027 36.85646241 17 38 C15.68 38 14.36 38 13 38 C13 38.99 13 39.98 13 41 C8.18918919 45.81081081 8.18918919 45.81081081 4.25 46.4375 C2 46 2 46 0 44 C-0.24606015 40.99113276 -0.37380782 38.06782248 -0.4140625 35.0546875 C-0.43342865 34.1696756 -0.4527948 33.2846637 -0.4727478 32.37283325 C-0.53262723 29.54032084 -0.57896213 26.70776797 -0.625 23.875 C-0.66317211 21.95701332 -0.70222338 20.03904393 -0.7421875 18.12109375 C-0.83833555 13.41420252 -0.92233542 8.70723104 -1 4 C-2.65 4 -4.3 4 -6 4 C-7.13335166 6.26670332 -7.12343812 7.48388875 -7.12025452 9.99893188 C-7.12162918 10.83468246 -7.12300385 11.67043304 -7.12442017 12.5315094 C-7.12082489 13.45004196 -7.11722961 14.36857452 -7.11352539 15.31494141 C-7.11367142 16.28083694 -7.11381744 17.24673248 -7.1139679 18.24189758 C-7.11326937 21.44514181 -7.10547978 24.64832839 -7.09765625 27.8515625 C-7.09579186 30.06830819 -7.09436805 32.28505429 -7.09336853 34.50180054 C-7.08954504 40.34453463 -7.07971617 46.18724397 -7.06866455 52.02996826 C-7.05844682 57.98872544 -7.05387013 63.9474866 -7.04882812 69.90625 C-7.03809377 81.60417756 -7.02101935 93.30208672 -7 105 C-4.69 105.33 -2.38 105.66 0 106 C-0.01554428 105.41641724 -0.03108856 104.83283447 -0.04710388 104.23156738 C-0.20253142 98.13189846 -0.30777463 92.03279594 -0.38452148 85.93164062 C-0.41962297 83.65797052 -0.46731746 81.38445729 -0.52807617 79.11132812 C-0.61344687 75.83424107 -0.65279243 72.55925 -0.68359375 69.28125 C-0.71972275 68.27259888 -0.75585175 67.26394775 -0.79307556 66.22473145 C-0.79672128 59.60244354 0.55394039 56.26632345 5.24406433 51.5544281 C7.32750768 49.71007643 9.38914904 48.0401248 11.75 46.5625 C12.48734375 46.08941406 13.2246875 45.61632812 13.984375 45.12890625 C19.79864348 41.87246518 26.54497181 42.35735339 33 43 C37.52737994 44.70458582 41.79673133 47.59346266 44 52 C44.75 55.6875 44.75 55.6875 45 59 C44.67 59.33 44.34 59.66 44 60 C43.76712992 61.68183948 43.58735834 63.3712416 43.4375 65.0625 C43.35371094 65.98160156 43.26992188 66.90070313 43.18359375 67.84765625 C43.09271484 68.91306641 43.09271484 68.91306641 43 70 C42.67 70 42.34 70 42 70 C42 64.06 42 58.12 42 52 C40.35 52 38.7 52 37 52 C35.97148346 51.02935396 34.97125924 50.0279375 34 49 C27.82051941 47.10647109 22.48773738 48.04990472 16.6171875 50.40625 C9.47999311 54.59716822 9.47999311 54.59716822 5.27005005 61.37765503 C5.01372817 64.14855069 4.99567841 66.82377626 5.0703125 69.60546875 C5.06417938 70.60709549 5.05804626 71.60872223 5.05172729 72.64070129 C5.03884895 75.82427495 5.0797077 79.00427041 5.125 82.1875 C5.13846584 85.38058712 5.14076335 88.57332731 5.13400269 91.76643372 C5.13322318 93.74864565 5.14599733 95.73092013 5.17385864 97.7129364 C5.17981049 98.61099503 5.18576233 99.50905365 5.19189453 100.43432617 C5.2027005 101.22151535 5.21350647 102.00870453 5.22463989 102.81974792 C4.96522634 105.33749729 4.36051067 106.87082676 3 109 C-0.7373856 111.4915904 -2.57331583 111.45793285 -7 111 C-9.875 109.5 -9.875 109.5 -12 107 C-13.01056454 101.20529931 -13.15325488 95.50447964 -13.16113281 89.6340332 C-13.16609772 88.73381439 -13.17106262 87.83359558 -13.17617798 86.90609741 C-13.1906801 83.95431738 -13.19757837 81.00259092 -13.203125 78.05078125 C-13.20888244 75.98911031 -13.21464009 73.92743937 -13.22039795 71.86576843 C-13.23087115 67.55626172 -13.23673913 63.24677349 -13.24023438 58.93725586 C-13.24573829 53.41581101 -13.26982212 47.89461035 -13.29820633 42.37324238 C-13.31681839 38.1207558 -13.32203735 33.86832854 -13.32357025 29.61580467 C-13.32659608 27.57963908 -13.33462223 25.5434745 -13.34775543 23.50734901 C-13.36480004 20.66396913 -13.36294055 17.82119337 -13.35644531 14.9777832 C-13.3656601 14.13870926 -13.37487488 13.29963531 -13.3843689 12.43513489 C-13.35121785 7.80501876 -13.01080294 4.75971996 -10 1 C-6.80962203 -0.59518898 -3.47144801 -0.3780785 0 0 Z " fill="#CBF911" transform="translate(741,586)"/>
<path d="M0 0 C3.59346881 3.12505945 6.11131438 6.63026826 8 11 C8.125 14.25 8.125 14.25 8 17 C7.01 17 6.02 17 5 17 C4.56300781 15.98679687 4.56300781 15.98679687 4.1171875 14.953125 C1.44181432 9.13124375 -0.49821594 6.19871166 -6 3 C-6 2.01 -6 1.02 -6 0 C-17.55 0 -29.1 0 -41 0 C-41.33 0.99 -41.66 1.98 -42 3 C-43.65 3.33 -45.3 3.66 -47 4 C-47.33 5.98 -47.66 7.96 -48 10 C-45.03 10 -42.06 10 -39 10 C-39 9.34 -39 8.68 -39 8 C-31.03255219 5.43976613 -17.74159377 5.6699131 -10 9 C-7.125 11.3125 -7.125 11.3125 -5 14 C-4.401875 14.7425 -3.80375 15.485 -3.1875 16.25 C-1.54653961 20.05011879 -1.03330608 23.93531847 -2 28 C-4.94054461 31.07585007 -7.63136025 31.37484559 -11.78948975 31.49235535 C-12.53442688 31.49874527 -13.27936401 31.50513519 -14.046875 31.51171875 C-14.81807678 31.52966995 -15.58927856 31.54762115 -16.3838501 31.56611633 C-18.83917832 31.62015769 -21.29431286 31.6540942 -23.75 31.6875 C-25.41799566 31.72067864 -27.08596579 31.75516882 -28.75390625 31.79101562 C-32.8357976 31.87588022 -36.91763214 31.94272026 -41 32 C-41.33 32.99 -41.66 33.98 -42 35 C-43.77734375 36.359375 -43.77734375 36.359375 -45.9375 37.75 C-48.9348107 39.93229956 -49.92368997 40.83148202 -51.5 44.3125 C-52.45026454 51.32070101 -52.67448439 56.59707248 -49.55859375 63.078125 C-46.30050823 67.09561391 -43.33225364 69.67065984 -38.18188477 70.39794922 C-34.96125783 70.49132999 -31.78193675 70.43669192 -28.5625 70.3125 C-27.44939453 70.28994141 -26.33628906 70.26738281 -25.18945312 70.24414062 C-22.45822705 70.18553062 -19.72983047 70.10353541 -17 70 C-16.505 68.515 -16.505 68.515 -16 67 C-11.73549365 64.3655219 -7.0762444 62.34500072 -2 63 C-1.67 64.98 -1.34 66.96 -1 69 C1.64 69.33 4.28 69.66 7 70 C7 53.5 7 37 7 20 C7.99 19.67 8.98 19.34 10 19 C10.9206374 24.50168483 11.17488535 29.83300066 11.203125 35.40625 C11.20882507 36.28978149 11.21452515 37.17331299 11.22039795 38.08361816 C11.22979843 39.94261494 11.2363621 41.80162802 11.24023438 43.66064453 C11.24997079 46.49150641 11.28105332 49.32165083 11.3125 52.15234375 C11.31902849 53.96614156 11.32427956 55.77994452 11.328125 57.59375 C11.3404718 58.43248657 11.3528186 59.27122314 11.36553955 60.13537598 C11.34537197 65.49616265 10.55843715 69.2568475 8 74 C5.13391871 75.43304064 3.18699217 75.30644155 0 75 C-5.57894737 71.84210526 -5.57894737 71.84210526 -7 69 C-7.88042969 69.42152344 -8.76085937 69.84304688 -9.66796875 70.27734375 C-10.82941406 70.82519531 -11.99085938 71.37304688 -13.1875 71.9375 C-14.33605469 72.48277344 -15.48460937 73.02804687 -16.66796875 73.58984375 C-25.09627836 77.15680714 -35.31410172 77.40654461 -43.8984375 74.11328125 C-49.45073059 71.17201075 -54.35568003 66.75528464 -57 61 C-59.13483894 53.7173225 -58.49541439 46.71975582 -55 40 C-50.31838469 32.68497608 -42.45821378 28.5024667 -34.0625 26.625 C-25.48656962 25.37120901 -16.64225717 25.84763895 -8 26 C-8.66 22.37 -9.32 18.74 -10 15 C-19.79509458 11.73496847 -28.36972874 11.31887943 -38.375 14.125 C-42.3838161 15.09264527 -45.0172641 15.01520719 -49 14 C-51.62573913 12.33703188 -51.96963809 11.08729049 -53 8.125 C-53 5 -53 5 -51.1875 2.375 C-36.95285196 -8.23120834 -15.14535983 -8.99975029 0 0 Z " fill="#CBF913" transform="translate(192,622)"/>
<path d="M0 0 C7.04992332 4.81394017 10.81874836 11.39634649 12.59375 19.6796875 C13.41474916 25.317115 13.76524258 30.799551 13.796875 36.4921875 C13.80257507 37.30534424 13.80827515 38.11850098 13.81414795 38.95629883 C13.82353075 40.66388676 13.83010491 42.37149226 13.83398438 44.07910156 C13.84372432 46.67284816 13.87482478 49.26581249 13.90625 51.859375 C13.91277871 53.52864119 13.9180297 55.19791297 13.921875 56.8671875 C13.9342218 57.63200439 13.9465686 58.39682129 13.95928955 59.18481445 C13.93701467 64.63543337 12.82260838 68.69187873 10.59375 73.6796875 C8.56617533 75.55707145 7.37271108 75.65761168 4.6640625 75.734375 C2.4825936 75.61451407 0.66409927 75.38299086 -1.40625 74.6796875 C-3.40625 72.1171875 -3.40625 72.1171875 -4.40625 69.6796875 C-6.894186 70.66689342 -9.37338858 71.66568705 -11.8359375 72.71484375 C-21.66215788 76.84311206 -31.15706188 78.33853706 -41.3046875 74.58984375 C-47.07712699 72.0898839 -50.76665053 68.6711382 -54.40625 63.6796875 C-56.71180938 56.95270728 -56.45603448 48.30638954 -53.84375 41.7421875 C-50.03881655 34.52866784 -44.29838192 31.11338894 -36.76538086 28.4621582 C-30.15083156 26.92137541 -23.44401087 27.54658876 -16.71875 27.9296875 C-15.2273059 27.99813659 -13.73576725 28.06455709 -12.24414062 28.12890625 C-8.63012192 28.28916588 -5.01815105 28.47670358 -1.40625 28.6796875 C-1.40625 29.3396875 -1.40625 29.9996875 -1.40625 30.6796875 C-11.96625 30.6796875 -22.52625 30.6796875 -33.40625 30.6796875 C-33.73625 31.6696875 -34.06625 32.6596875 -34.40625 33.6796875 C-36.55078125 34.70703125 -36.55078125 34.70703125 -39.21875 35.6171875 C-44.55237474 37.60958973 -44.55237474 37.60958973 -48.40625 41.6796875 C-49.27007428 44.43675166 -49.27007428 44.43675166 -49.40625 47.6796875 C-49.48359375 48.70449219 -49.48359375 48.70449219 -49.5625 49.75 C-49.80174565 55.47195843 -48.92480626 60.50265518 -46.40625 65.6796875 C-42.87213482 69.33160652 -38.5921048 70.59706647 -33.59375 70.9453125 C-32.19791689 70.95057979 -30.80200753 70.94513869 -29.40625 70.9296875 C-28.70757813 70.93742188 -28.00890625 70.94515625 -27.2890625 70.953125 C-23.17570925 70.93760291 -20.13730621 70.35701188 -16.40625 68.6796875 C-13.09375 68.5546875 -13.09375 68.5546875 -10.40625 68.6796875 C-10.096875 68.0403125 -9.7875 67.4009375 -9.46875 66.7421875 C-8.40625 64.6796875 -8.40625 64.6796875 -7.40625 63.6796875 C-5.40666636 63.63887967 -3.40579746 63.63714394 -1.40625 63.6796875 C-1.07625 65.6596875 -0.74625 67.6396875 -0.40625 69.6796875 C2.56375 69.6796875 5.53375 69.6796875 8.59375 69.6796875 C8.57738949 62.59911473 8.52231654 55.5195773 8.44116211 48.43945312 C8.41805999 46.03424799 8.40360481 43.62894281 8.39819336 41.22363281 C8.38884724 37.75262665 8.34772962 34.28317733 8.30078125 30.8125 C8.3047139 29.74855011 8.30864655 28.68460022 8.31269836 27.58840942 C8.16265862 19.79503501 6.46311248 13.01616692 1.15144348 7.06326294 C-2.00749438 4.27218922 -5.58700677 2.40744039 -9.40625 0.6796875 C-9.40625 0.0196875 -9.40625 -0.6403125 -9.40625 -1.3203125 C-20.47680528 -0.46613768 -30.96916691 0.70597734 -41.6328125 3.875 C-44.40625 4.6796875 -44.40625 4.6796875 -46.40625 4.6796875 C-46.40625 6.6596875 -46.40625 8.6396875 -46.40625 10.6796875 C-45.58125 10.463125 -44.75625 10.2465625 -43.90625 10.0234375 C-32.08839555 7.17449045 -17.72685199 4.90433973 -6.40625 10.6796875 C-2.17639353 14.69805115 -0.47120334 18.69861072 -0.28125 24.4921875 C-0.3225 25.5440625 -0.36375 26.5959375 -0.40625 27.6796875 C-1.06625 27.6796875 -1.72625 27.6796875 -2.40625 27.6796875 C-2.40625 25.3696875 -2.40625 23.0596875 -2.40625 20.6796875 C-3.72625 21.0096875 -5.04625 21.3396875 -6.40625 21.6796875 C-9.40625 16.9296875 -9.40625 16.9296875 -9.40625 14.6796875 C-13.87871585 13.56378513 -18.26418747 13.53081489 -22.84375 13.5546875 C-23.58173828 13.55082031 -24.31972656 13.54695312 -25.08007812 13.54296875 C-29.30961517 13.55048793 -33.23345762 13.91993539 -37.40625 14.6796875 C-39.13242787 14.81110953 -40.862876 14.89748519 -42.59375 14.9296875 C-43.43292969 14.95546875 -44.27210938 14.98125 -45.13671875 15.0078125 C-47.40625 14.6796875 -47.40625 14.6796875 -49.17578125 13.375 C-51.2873928 10.46566853 -50.8834729 8.13955351 -50.40625 4.6796875 C-40.17780153 -9.98108864 -13.59624456 -7.46027705 0 0 Z " fill="#CBF914" transform="translate(868.40625,621.3203125)"/>
<path d="M0 0 C1.258125 0.12375 2.51625 0.2475 3.8125 0.375 C4.87404297 0.47941406 4.87404297 0.47941406 5.95703125 0.5859375 C8 1 8 1 11 3 C9.35 3 7.7 3 6 3 C6 3.66 6 4.32 6 5 C6.70125 5.103125 7.4025 5.20625 8.125 5.3125 C11.56857099 6.13596263 14.05967918 6.99523581 17 9 C17.875 12.6875 17.875 12.6875 18 16 C15.03 16.495 15.03 16.495 12 17 C12 16.34 12 15.68 12 15 C2.40494068 11.76959927 -7.71278389 9.68241111 -17.3125 13.9375 C-24.19592604 17.90612022 -30.25483551 24.11481655 -32.59765625 31.84765625 C-34.20343103 40.43777181 -33.08286576 48.25456349 -29 56 C-25.15981745 61.29450911 -21.40210112 63.82410388 -15 65 C-15 65.66 -15 66.32 -15 67 C-11.60352587 66.88964039 -8.20811211 66.75912556 -4.8125 66.625 C-3.85279297 66.5940625 -2.89308594 66.563125 -1.90429688 66.53125 C-0.97294922 66.49257813 -0.04160156 66.45390625 0.91796875 66.4140625 C1.77156982 66.3826416 2.6251709 66.3512207 3.50463867 66.31884766 C6.2648874 65.96615371 8.43581143 65.05376177 11 64 C14.3125 63.875 14.3125 63.875 17 64 C17 66.31 17 68.62 17 71 C15.43979133 71.65134925 13.87671421 72.29582964 12.3125 72.9375 C11.00732422 73.47697266 11.00732422 73.47697266 9.67578125 74.02734375 C-0.34840092 77.67117055 -13.27541158 77.46265359 -23 73 C-29.17917304 69.59754396 -34.68316927 65.95049218 -37 59 C-37.99 58.67 -38.98 58.34 -40 58 C-42.79174044 47.40634209 -43.15252646 35.76263231 -41 25 C-40.34 24.67 -39.68 24.34 -39 24 C-38.09274566 21.88672575 -38.09274566 21.88672575 -37.375 19.4375 C-37.11460937 18.61121094 -36.85421875 17.78492188 -36.5859375 16.93359375 C-36.39257812 16.29550781 -36.19921875 15.65742187 -36 15 C-35.01 15 -34.02 15 -33 15 C-33 14.34 -33 13.68 -33 13 C-32.34 13 -31.68 13 -31 13 C-30.67 12.01 -30.34 11.02 -30 10 C-28.67696283 9.6278958 -27.34262065 9.29369827 -26 9 C-25.67 8.34 -25.34 7.68 -25 7 C-15.75113232 3.44666665 -5.77121454 3.33574078 4 3 C2.68 2.67 1.36 2.34 0 2 C0 1.34 0 0.68 0 0 Z " fill="#CBFD02" transform="translate(693,617)"/>
<path d="M0 0 C2.9375 2.125 2.9375 2.125 5 5 C4.79139573 10.28259631 3.64983095 13.12604805 0.1875 17.0625 C-1.00939453 18.45855469 -1.00939453 18.45855469 -2.23046875 19.8828125 C-3.68465517 21.52871869 -5.14854333 23.16546713 -6.61572266 24.79980469 C-7.73870214 26.05262155 -8.85728995 27.30938893 -9.97143555 28.57006836 C-11.06097763 29.80052863 -12.1625266 31.02047601 -13.27661133 32.22875977 C-14.98504645 34.09680907 -14.98504645 34.09680907 -17 37 C-16.53407414 40.4643247 -15.10171754 42.4809956 -12.9375 45.1875 C-12.3084375 45.97511719 -11.679375 46.76273438 -11.03125 47.57421875 C-9.05298908 49.9367188 -7.01207075 52.22196173 -4.9375 54.5 C4.87720688 65.50320654 4.87720688 65.50320654 5.1875 71.8125 C3.75252055 75.66428693 2.58490206 77.00838775 -1 79 C-3.8125 79.6875 -3.8125 79.6875 -7 79 C-13.66000601 74.80448961 -18.54226486 68.00284639 -23.484375 61.98828125 C-25.56195154 59.52035259 -27.67571295 57.23196724 -30 55 C-35.95085249 61.42294517 -41.65831637 67.91442198 -47.08984375 74.78515625 C-49.50720272 77.58810622 -51.1842768 78.87586821 -54.875 79.4375 C-58 79 -58 79 -60.875 76.9375 C-63 74 -63 74 -63.6875 70.6875 C-62.4704325 64.1595925 -58.05951572 60.20391172 -53.77734375 55.33203125 C-53.19944092 54.67203125 -52.62153809 54.01203125 -52.02612305 53.33203125 C-50.85741043 52.00315279 -49.68066131 50.68129217 -48.49536133 49.3671875 C-44.27292609 44.7364771 -44.27292609 44.7364771 -42 39 C-42.70119612 37.0819262 -42.70119612 37.0819262 -44.25 35.4375 C-44.81074219 34.756875 -45.37148438 34.07625 -45.94921875 33.375 C-46.62597656 32.59125 -47.30273438 31.8075 -48 31 C-51.34066676 27.0060709 -54.6715484 23.00411066 -58 19 C-58.57878906 18.32582031 -59.15757812 17.65164063 -59.75390625 16.95703125 C-62.15441369 13.96836529 -63.31947829 11.59651278 -63.5 7.8125 C-63 4 -63 4 -62.0625 1.5 C-59.1656657 -0.60678858 -56.92175998 -0.75348492 -53.3828125 -0.54296875 C-43.4295534 1.72506898 -36.58835774 15.21521608 -31 23 C-26.50826447 22.1531053 -25.04316757 20.06171452 -22.1875 16.5 C-21.75099121 15.96262207 -21.31448242 15.42524414 -20.86474609 14.87158203 C-17.66156432 10.90848274 -14.57200183 6.86008291 -11.5703125 2.7421875 C-8.04648783 -1.16732943 -4.95220999 -1.51598265 0 0 Z M-59 3 C-59.67542927 7.65295718 -60.04739998 10.48708892 -57.3125 14.4375 C-55.76961493 16.10895882 -54.19459029 17.75114935 -52.59375 19.3671875 C-49.88632595 22.11538601 -47.47934773 24.99463415 -45.0625 28 C-42.15584195 31.61241103 -42.15584195 31.61241103 -39 35 C-38.734375 36.875 -38.734375 36.875 -38.75 39 C-38.74484375 39.70125 -38.7396875 40.4025 -38.734375 41.125 C-39 43 -39 43 -41 45 C-41 45.99 -41 46.98 -41 48 C-41.66 48 -42.32 48 -43 48 C-43 48.66 -43 49.32 -43 50 C-43.56589844 50.05542969 -44.13179687 50.11085938 -44.71484375 50.16796875 C-48.04841083 51.38172907 -49.39510006 53.54365574 -51.5625 56.3125 C-52.70912109 57.76076172 -52.70912109 57.76076172 -53.87890625 59.23828125 C-54.57886719 60.14964844 -55.27882813 61.06101562 -56 62 C-56.58136719 62.6909375 -57.16273438 63.381875 -57.76171875 64.09375 C-59.8852147 67.36272799 -59.25007586 70.1863431 -59 74 C-57.91661824 75.27081843 -57.91661824 75.27081843 -55.375 75.5 C-48.22603499 74.44089407 -44.44275039 67.33914232 -40.375 61.875 C-39.66085937 60.88242187 -38.94671875 59.88984375 -38.2109375 58.8671875 C-35.96722251 55.9574935 -33.78629347 53.39955242 -31 51 C-27 51 -27 51 -24.9921875 52.984375 C-24.29351563 53.89703125 -23.59484375 54.8096875 -22.875 55.75 C-22.08867188 56.74128906 -21.30234375 57.73257813 -20.4921875 58.75390625 C-18.79366427 60.94431859 -17.1449596 63.16584953 -15.5078125 65.40234375 C-11.39039725 71.31065093 -11.39039725 71.31065093 -5.3671875 74.75390625 C-2.624979 74.8278974 -2.624979 74.8278974 1 74 C1.86659748 68.36711636 -0.38985804 65.2536939 -3.39453125 60.7578125 C-3.92433594 60.17773438 -4.45414063 59.59765625 -5 59 C-5.99 59 -6.98 59 -8 59 C-8.33 57.35 -8.66 55.7 -9 54 C-9.99 54 -10.98 54 -12 54 C-12.20625 53.319375 -12.4125 52.63875 -12.625 51.9375 C-14.18662031 48.60131116 -16.16454752 46.51605928 -18.7578125 43.94140625 C-20.55344209 41.13502919 -20.41610321 39.27057123 -20 36 C-18.6015625 33.61328125 -18.6015625 33.61328125 -16.625 31.3125 C-15.903125 30.46171875 -15.18125 29.6109375 -14.4375 28.734375 C-11.02579187 24.90713831 -7.59235119 21.10322613 -4.1015625 17.34765625 C-0.98195362 13.86274002 0.25931293 11.94629621 0.125 7.3125 C0.10695313 6.50425781 0.08890625 5.69601562 0.0703125 4.86328125 C0.04710937 4.24839844 0.02390625 3.63351562 0 3 C-3.33142278 2.49874717 -3.33142278 2.49874717 -7 3 C-9.3015039 5.86875539 -9.3015039 5.86875539 -11 9 C-11.99 9.33 -12.98 9.66 -14 10 C-15.54936526 11.86037965 -17.01876795 13.78817827 -18.4375 15.75 C-22.88629135 21.86238338 -22.88629135 21.86238338 -25.28515625 24.765625 C-27.20294636 26.79500131 -27.20294636 26.79500131 -27 29 C-28.32 29 -29.64 29 -31 29 C-31 28.34 -31 27.68 -31 27 C-31.86625 26.319375 -32.7325 25.63875 -33.625 24.9375 C-36.26139456 22.82961344 -37.99709329 20.71761162 -39.8125 17.875 C-42.23675629 14.09188426 -44.80393607 10.4861824 -47.5625 6.9375 C-48.28566406 5.99777344 -49.00882813 5.05804687 -49.75390625 4.08984375 C-51.82039369 1.76679544 -51.82039369 1.76679544 -54.65234375 1.62890625 C-57.01379446 1.88103016 -57.01379446 1.88103016 -59 3 Z " fill="#CBF913" transform="translate(633,618)"/>
<path d="M0 0 C0 4.29 0 8.58 0 13 C1.794375 12.79375 3.58875 12.5875 5.4375 12.375 C10.78885561 11.93169243 15.99399801 11.80005294 21 14 C23.48038907 17.7205836 23.46337203 19.59796571 23 24 C21.5546875 26.20703125 21.5546875 26.20703125 19 28 C15.90123191 28.48594147 12.87672201 28.37702308 9.75 28.25 C8.90953125 28.23195313 8.0690625 28.21390625 7.203125 28.1953125 C5.13492605 28.14830798 3.06731559 28.07656724 1 28 C1.11871643 33.71098536 1.24299438 39.42181325 1.37231445 45.13256836 C1.41549192 47.07329054 1.45717831 49.01404652 1.49731445 50.95483398 C1.55543566 53.75254477 1.61900716 56.55008814 1.68359375 59.34765625 C1.70030624 60.2083522 1.71701874 61.06904816 1.73423767 61.95582581 C1.85009844 66.7210352 2.22023199 71.29641714 3 76 C4.18078125 75.96519531 5.3615625 75.93039062 6.578125 75.89453125 C8.13540242 75.86638768 9.69269525 75.83908813 11.25 75.8125 C12.02730469 75.78736328 12.80460937 75.76222656 13.60546875 75.73632812 C17.05699681 75.69207777 19.39184967 75.69356033 22.51171875 77.265625 C24.58624452 79.68318259 24.61492482 81.95408259 24.44921875 85.0625 C24 87 24 87 21.875 89.4375 C18.83300199 91.09075979 16.43039783 91.68089323 13 92 C13 91.34 13 90.68 13 90 C9.04 90 5.08 90 1 90 C1 89.67 1 89.34 1 89 C2.05960938 88.79503906 3.11921875 88.59007812 4.2109375 88.37890625 C5.59898822 88.10692334 6.98700744 87.83477956 8.375 87.5625 C9.42300781 87.36043945 9.42300781 87.36043945 10.4921875 87.15429688 C14.35628734 86.4227578 14.35628734 86.4227578 18 85 C18.65555119 82.47266765 18.65555119 82.47266765 19 80 C17.81921875 80.03480469 16.6384375 80.06960938 15.421875 80.10546875 C13.86459758 80.13361232 12.30730475 80.16091187 10.75 80.1875 C9.97269531 80.21263672 9.19539063 80.23777344 8.39453125 80.26367188 C4.91590141 80.30826969 2.62718756 80.3343028 -0.484375 78.67578125 C-3.10420902 75.7791091 -3.12587875 72.99448535 -3.12939453 69.26904297 C-3.13254669 68.31150116 -3.13569885 67.35395935 -3.13894653 66.36740112 C-3.1369223 65.33608063 -3.13489807 64.30476013 -3.1328125 63.2421875 C-3.13376923 62.18339386 -3.13472595 61.12460022 -3.13571167 60.03372192 C-3.13639226 57.79608094 -3.13454639 55.55843797 -3.13037109 53.32080078 C-3.12501059 49.88179127 -3.13032563 46.44291174 -3.13671875 43.00390625 C-3.13605816 40.83333304 -3.13477738 38.66275992 -3.1328125 36.4921875 C-3.13483673 35.45681854 -3.13686096 34.42144958 -3.13894653 33.35470581 C-3.13579437 32.40346832 -3.13264221 31.45223083 -3.12939453 30.47216797 C-3.12859894 29.63072235 -3.12780334 28.78927673 -3.12698364 27.92233276 C-3 26 -3 26 -2 25 C-0.58429877 24.91348389 0.835595 24.89295096 2.25390625 24.90234375 C3.53491211 24.90717773 3.53491211 24.90717773 4.84179688 24.91210938 C5.73962891 24.92048828 6.63746094 24.92886719 7.5625 24.9375 C8.46419922 24.94201172 9.36589844 24.94652344 10.29492188 24.95117188 C12.53001314 24.96299775 14.76497437 24.9794778 17 25 C17 24.34 17 23.68 17 23 C17.99 23 18.98 23 20 23 C20 21.02 20 19.04 20 17 C19.44014404 17.00523682 18.88028809 17.01047363 18.3034668 17.01586914 C15.76482263 17.03666691 13.22619641 17.04966904 10.6875 17.0625 C9.36588867 17.07506836 9.36588867 17.07506836 8.01757812 17.08789062 C7.17001953 17.09111328 6.32246094 17.09433594 5.44921875 17.09765625 C4.66893311 17.10289307 3.88864746 17.10812988 3.0847168 17.11352539 C1 17 1 17 -2 16 C-2.33 12.37 -2.66 8.74 -3 5 C-6.18462464 4.66626101 -6.18462464 4.66626101 -8.48828125 7.23046875 C-9.43672409 8.20937693 -10.37779559 9.19546537 -11.3125 10.1875 C-17.28640916 16.37624126 -17.28640916 16.37624126 -20.625 19 C-23.23949912 20.84855592 -23.23949912 20.84855592 -24 24 C-22.82630859 24.07347656 -22.82630859 24.07347656 -21.62890625 24.1484375 C-20.61699219 24.22320313 -19.60507813 24.29796875 -18.5625 24.375 C-17.55316406 24.44460938 -16.54382813 24.51421875 -15.50390625 24.5859375 C-14.67761719 24.72257813 -13.85132812 24.85921875 -13 25 C-11.79861465 27.4027707 -11.86924271 28.91513353 -11.8581543 31.59814453 C-11.85111984 32.55318878 -11.84408539 33.50823303 -11.83683777 34.49221802 C-11.83267349 35.5286142 -11.82850922 36.56501038 -11.82421875 37.6328125 C-11.80100993 39.82292617 -11.77689217 42.01303035 -11.75195312 44.203125 C-11.71691165 47.65924316 -11.6875389 51.11501532 -11.67407227 54.57128906 C-11.6585379 57.90472588 -11.61827941 61.23714623 -11.57421875 64.5703125 C-11.57612717 65.59456329 -11.57803558 66.61881409 -11.58000183 67.67410278 C-11.45713663 74.93054045 -10.34140425 80.65859575 -5 86 C-2.93125966 86.6425235 -2.93125966 86.6425235 -1 87 C-1 87.66 -1 88.32 -1 89 C-4.30961785 89.84664643 -6.37056976 90.22479651 -9.625 89.0625 C-14.88730062 84.49260735 -16.30983215 78.75958512 -17 72 C-17.13659305 68.43622933 -17.14177428 64.87853222 -17.125 61.3125 C-17.12306641 60.31532959 -17.12113281 59.31815918 -17.11914062 58.29077148 C-17.06345393 48.50924808 -16.59873471 38.76151409 -16 29 C-16.77085938 28.95101562 -17.54171875 28.90203125 -18.3359375 28.8515625 C-19.33882812 28.77679687 -20.34171875 28.70203125 -21.375 28.625 C-22.87160156 28.52058594 -22.87160156 28.52058594 -24.3984375 28.4140625 C-27 28 -27 28 -29 26 C-29.47976854 22.38937077 -29.50784124 20.67021225 -27.27734375 17.7265625 C-26.50519531 17.03304687 -25.73304687 16.33953125 -24.9375 15.625 C-21.85809735 12.7627966 -18.99900151 9.92214419 -16.3125 6.6875 C-11.26523676 0.886048 -7.90183575 -1.89644058 0 0 Z " fill="#CBF913" transform="translate(104,605)"/>
<path d="M0 0 C0.66 0.33 1.32 0.66 2 1 C1.67 1.99 1.34 2.98 1 4 C0.90480041 5.3661134 0.86252422 6.73632108 0.85523987 8.10572815 C0.84834137 8.93996307 0.84144287 9.774198 0.83433533 10.63371277 C0.83172195 11.54550797 0.82910858 12.45730316 0.82641602 13.39672852 C0.819729 14.3595575 0.81304199 15.32238647 0.80615234 16.31439209 C0.79209708 18.4064005 0.78020454 20.49842429 0.77020454 22.59045601 C0.75381564 25.89718872 0.7305806 29.20380678 0.70530701 32.51048279 C0.63445823 41.91244825 0.57428645 51.31445952 0.52319336 60.71655273 C0.49147624 66.46479621 0.45022405 72.21290643 0.40299797 77.9610424 C0.38693927 80.15595044 0.3746357 82.35088916 0.36609077 84.54583931 C0.3539934 87.60825335 0.32986907 90.67035141 0.30297852 93.73266602 C0.30238937 94.64648544 0.30180023 95.56030487 0.30119324 96.5018158 C0.22790056 102.77209944 0.22790056 102.77209944 -2 105 C-4.31 105 -6.62 105 -9 105 C-9 71.34 -9 37.68 -9 3 C-2 2 -2 2 0 3 C0 2.01 0 1.02 0 0 Z " fill="#CBFD01" transform="translate(327,587)"/>
<path d="M0 0 C1.14597656 -0.02900391 2.29195313 -0.05800781 3.47265625 -0.08789062 C10.53281834 -0.14069966 15.10269278 0.56150521 21.125 4.3125 C21.61301743 11.63276144 21.61301743 11.63276144 19.375 14.75 C13.60237157 18.75876974 5.97856522 17.53528639 -0.75 17.5625 C-2.01714844 17.583125 -3.28429687 17.60375 -4.58984375 17.625 C-5.81574219 17.63015625 -7.04164063 17.6353125 -8.3046875 17.640625 C-9.42085449 17.6499707 -10.53702148 17.65931641 -11.68701172 17.66894531 C-15.50574653 17.24197695 -19.08631411 16.10118589 -21.875 13.3125 C-22.33433014 6.30771531 -22.33433014 6.30771531 -20.75 2.875 C-15.67424269 -1.35479776 -6.27243889 0.05256234 0 0 Z " fill="#CBFA0F" transform="translate(452.875,644.6875)"/>
<path d="M0 0 C0 0.66 0 1.32 0 2 C1.32 2 2.64 2 4 2 C4 2.66 4 3.32 4 4 C4.5775 4.061875 5.155 4.12375 5.75 4.1875 C8.93353478 5.33710978 10.10585921 7.25676162 12 10 C13.80145765 15.40437295 13.22735608 21.21968166 13.25 26.875 C13.270625 28.15503906 13.29125 29.43507813 13.3125 30.75390625 C13.32023437 32.60435547 13.32023437 32.60435547 13.328125 34.4921875 C13.34214355 36.18384033 13.34214355 36.18384033 13.35644531 37.90966797 C12.95806568 41.36356481 12.03597119 43.21229518 10 46 C8.1328125 47.4765625 8.1328125 47.4765625 6.125 48.625 C5.41988281 49.03492188 4.71476562 49.44484375 3.98828125 49.8671875 C3.33214844 50.24101563 2.67601562 50.61484375 2 51 C1.113125 51.5775 0.22625 52.155 -0.6875 52.75 C-6.29803052 55.7827192 -12.79590614 55.8853994 -18.85546875 54.2109375 C-27.44064536 51.23958179 -27.44064536 51.23958179 -30 48 C-30 47.34 -30 46.68 -30 46 C-30.86625 45.7215625 -30.86625 45.7215625 -31.75 45.4375 C-35.42683626 43.08841017 -37.18910491 39.31832826 -38.609375 35.2578125 C-39.18538391 31.92848101 -39.10386247 28.61626834 -39.0625 25.25 C-39.05798828 24.55261719 -39.05347656 23.85523438 -39.04882812 23.13671875 C-39.0371002 21.42444197 -39.01916653 19.71220967 -39 18 C-38.01 17.67 -37.02 17.34 -36 17 C-36 15.35 -36 13.7 -36 12 C-35.34 12 -34.68 12 -34 12 C-33.8453125 10.8553125 -33.8453125 10.8553125 -33.6875 9.6875 C-32.94932885 6.80192188 -32.37859197 5.73820183 -30 4 C-29.01 4 -28.02 4 -27 4 C-26.67 3.01 -26.34 2.02 -26 1 C-18.05108563 -3.12732092 -8.20833237 -3.82243307 0 0 Z M-32 11 C-36.31164563 18.76096213 -36.52860694 28.53664558 -34.15625 37.015625 C-31.48851432 43.03605552 -27.99937856 46.36808872 -22 49 C-15.69623004 51.36391374 -10.2622123 52.2931292 -3.96484375 49.796875 C3.38965126 46.48748678 3.38965126 46.48748678 9 41 C9.71837614 37.28019996 9.83506126 33.59320407 9.9375 29.8125 C9.99228516 28.80896484 10.04707031 27.80542969 10.10351562 26.77148438 C10.34020236 20.38924737 9.93268828 14.7693919 7 9 C2.16145805 3.87745667 -5.54148334 1.99213868 -12.375 1.625 C-20.01964244 1.82034861 -26.79900727 5.55134094 -32 11 Z " fill="#CBF911" transform="translate(1036,630)"/>
<path d="M0 0 C1.32 0 2.64 0 4 0 C4.01417969 0.7734375 4.02835938 1.546875 4.04296875 2.34375 C4.42393744 10.66328243 6.07609882 16.07609882 12 22 C13.175625 22.33 14.35125 22.66 15.5625 23 C16.696875 23.33 17.83125 23.66 19 24 C19.33 24.66 19.66 25.32 20 26 C22.6711789 26.48892114 25.31151876 26.8887848 28 27.25 C35.61291012 28.4059285 41.42370505 30.42370505 47 36 C47.38301738 39.25564772 47.67642942 41.86168034 45.953125 44.76171875 C44.16243098 46.93688531 42.53951219 48.73024391 40 50 C27.90300929 50.91423496 15.60674919 50.74267536 4 47 C4 49.31 4 51.62 4 54 C5.32 54 6.64 54 8 54 C8.33 54.66 8.66 55.32 9 56 C9.99 56.33 10.98 56.66 12 57 C12 57.66 12 58.32 12 59 C7.62041012 59.29692135 4.97967415 59.4694272 1 57.5625 C-1.54977237 54.29560415 -1.72811596 52.13194605 -1.48046875 48.0625 C-1 46 -1 46 1.0625 43.9375 C6.52482312 42.19420539 10.7535853 42.86046935 16.125 44.5 C24.13953849 46.83250707 33.25098279 47.5549037 41 44 C42.13643227 42.09070686 42.13643227 42.09070686 42.375 39.875 C42.58125 38.59625 42.7875 37.3175 43 36 C42.41951904 35.89260498 41.83903809 35.78520996 41.2409668 35.67456055 C34.34287485 34.35200171 27.57958801 32.68965716 20.8125 30.8125 C19.77158203 30.54630859 18.73066406 30.28011719 17.65820312 30.00585938 C9.88946406 27.83061244 4.79968312 24.70855798 0.625 17.6875 C-0.72304005 11.89092778 -1.74023618 5.80078726 0 0 Z " fill="#CCF914" transform="translate(10,634)"/>
<path d="M0 0 C0.99 0.33 1.98 0.66 3 1 C3 34 3 67 3 101 C5.64 101 8.28 101 11 101 C11.33 98.69 11.66 96.38 12 94 C14.1875 93.25 14.1875 93.25 17 93 C19.625 94.875 19.625 94.875 22 97 C23.485 97.495 23.485 97.495 25 98 C25 98.99 25 99.98 25 101 C26.55460937 101.07347656 26.55460937 101.07347656 28.140625 101.1484375 C29.51044208 101.22349597 30.88023248 101.29904247 32.25 101.375 C32.93191406 101.4059375 33.61382812 101.436875 34.31640625 101.46875 C37.98739038 101.68259374 40.86251616 102.01077055 44 104 C41.70362099 106.29637901 35.92747769 105.36556553 32.73461914 105.40039062 C26.2290885 105.30730781 21.40399676 103.71773733 16 100 C15.38125 100.804375 14.7625 101.60875 14.125 102.4375 C12 105 12 105 10 106 C3.52941176 106.35294118 3.52941176 106.35294118 0 104 C-0.36914349 102.1296978 -0.36914349 102.1296978 -0.36076355 99.81124878 C-0.36488754 98.93342743 -0.36901154 98.05560608 -0.3732605 97.15118408 C-0.36247467 96.18589783 -0.35168884 95.22061157 -0.34057617 94.22607422 C-0.34101425 93.21141083 -0.34145233 92.19674744 -0.34190369 91.15133667 C-0.33980772 87.7855936 -0.31643831 84.42034393 -0.29296875 81.0546875 C-0.28737568 78.72584302 -0.28310422 76.39699502 -0.28010559 74.06814575 C-0.26863413 67.92940579 -0.23914705 61.79087773 -0.20599365 55.65222168 C-0.17534237 49.39187487 -0.16161083 43.13149392 -0.14648438 36.87109375 C-0.11427964 24.58063591 -0.06305547 12.29033555 0 0 Z " fill="#CCF71C" transform="translate(223,591)"/>
<path d="M0 0 C10.60086928 -0.20495773 21.06357215 -0.08270581 31.625 0.9375 C32.53080811 1.02435059 33.43661621 1.11120117 34.36987305 1.20068359 C40.72002449 1.86001224 40.72002449 1.86001224 43 3 C43.4375 5.5 43.4375 5.5 43 9 C41.69519043 10.81178284 41.69519043 10.81178284 39.95117188 12.72094727 C39.3129248 13.42285187 38.67467773 14.12475647 38.01708984 14.84793091 C32.68565306 20.53613581 27.240247 26.10558825 21.75732422 31.64770508 C20.24616315 33.1806036 18.74130756 34.7197426 17.24267578 36.26489258 C15.0615588 38.5128464 12.86144618 40.74053691 10.65625 42.96484375 C9.66063049 44.00220924 9.66063049 44.00220924 8.64489746 45.06053162 C4.61718969 49.07071184 1.95879302 50.99679142 -4 51 C-6.4375 50.0625 -6.4375 50.0625 -8 49 C-8 48.01 -8 47.02 -8 46 C-7.38511719 45.96261719 -6.77023437 45.92523438 -6.13671875 45.88671875 C-5.32847656 45.82097656 -4.52023437 45.75523438 -3.6875 45.6875 C-2.88699219 45.62949219 -2.08648438 45.57148437 -1.26171875 45.51171875 C1.38742483 44.9123443 2.20473841 43.96373189 4 42 C4.66 42 5.32 42 6 42 C6.2937854 40.97169067 6.2937854 40.97169067 6.59350586 39.92260742 C8.52503796 35.90900376 11.33105875 33.31597137 14.50390625 30.23828125 C15.14238998 29.60641403 15.78087372 28.97454681 16.43870544 28.3235321 C18.47297555 26.31261029 20.51715572 24.3121517 22.5625 22.3125 C24.60963092 20.30042023 26.65460806 18.2862165 28.69700623 16.26933289 C29.9670228 15.01630885 31.24010401 13.76638207 32.51649475 12.51985168 C35.64561956 9.55839025 35.64561956 9.55839025 38 6 C37.37657715 5.98018066 36.7531543 5.96036133 36.11083984 5.93994141 C24.29013494 5.5457001 12.6646167 5.08224527 1 3 C0.67 2.01 0.34 1.02 0 0 Z " fill="#0FF6F6" transform="translate(700,66)"/>
<path d="M0 0 C0.86560547 0.00451172 1.73121094 0.00902344 2.62304688 0.01367188 C4.72789539 0.02530087 6.83270758 0.04322927 8.9375 0.0625 C7.890625 1.984375 7.890625 1.984375 5.9375 4.0625 C2.609375 4.890625 2.609375 4.890625 -1.3125 5.3125 C-3.23835938 5.53679687 -3.23835938 5.53679687 -5.203125 5.765625 C-8.81360295 6.04335407 -12.44135592 6.0625 -16.0625 6.0625 C-16.0625 25.5325 -16.0625 45.0025 -16.0625 65.0625 C-17.0525 65.0625 -18.0425 65.0625 -19.0625 65.0625 C-19.08755615 64.45776855 -19.1126123 63.85303711 -19.13842773 63.22998047 C-19.25513006 60.4656438 -19.37751734 57.70158634 -19.5 54.9375 C-19.53931641 53.98617187 -19.57863281 53.03484375 -19.61914062 52.0546875 C-19.66103516 51.1265625 -19.70292969 50.1984375 -19.74609375 49.2421875 C-19.78275146 48.39382324 -19.81940918 47.54545898 -19.85717773 46.67138672 C-20.02280692 44.01417921 -20.02280692 44.01417921 -20.57177734 41.23364258 C-21.14573595 37.52461356 -21.22454678 33.88734942 -21.23046875 30.14453125 C-21.23379715 29.40547043 -21.23712555 28.66640961 -21.24055481 27.904953 C-21.24559077 26.35273863 -21.24796417 24.80051355 -21.24780273 23.24829102 C-21.25000303 20.871729 -21.2682309 18.49562154 -21.28710938 16.11914062 C-21.29004123 14.60677241 -21.29202742 13.09440201 -21.29296875 11.58203125 C-21.30015427 10.87262894 -21.30733978 10.16322662 -21.31474304 9.43232727 C-21.29759115 5.74669171 -21.1647107 4.21581605 -19.0625 1.0625 C-17.25219727 0.55297852 -17.25219727 0.55297852 -15.06640625 0.37890625 C-14.26219238 0.31461426 -13.45797852 0.25032227 -12.62939453 0.18408203 C-8.41627383 -0.01547419 -4.21699032 -0.04252977 0 0 Z " fill="#0FF5F5" transform="translate(408.0625,114.9375)"/>
<path d="M0 0 C1.35152073 0.02514231 2.70308709 0.04794492 4.0546875 0.06835938 C7.329315 0.12683487 10.60154709 0.20874808 13.875 0.3125 C15.31707941 3.19665883 14.96894887 5.72971528 14.9375 8.9375 C14.92847656 10.12601563 14.91945312 11.31453125 14.91015625 12.5390625 C14.89855469 13.45429687 14.88695312 14.36953125 14.875 15.3125 C14.25625 15.56 13.6375 15.8075 13 16.0625 C10.74419765 17.11138165 10.74419765 17.11138165 10.0390625 19.203125 C8.28151431 22.38794386 5.41199479 23.53433271 2.25 25.0625 C1.61553955 25.37034424 0.9810791 25.67818848 0.32739258 25.99536133 C-5.52177293 28.70193721 -9.26207378 29.71192402 -15.46484375 27.46484375 C-17.73854939 26.4956629 -19.92823189 25.44391816 -22.125 24.3125 C-22.8571875 23.9721875 -23.589375 23.631875 -24.34375 23.28125 C-26.125 22.3125 -26.125 22.3125 -26.875 20.6875 C-27.47873235 14.9520427 -27.68578939 10.53636995 -25.125 5.3125 C-17.87999466 -0.83648567 -8.96830131 -0.28915654 0 0 Z M-22.875 9.26953125 C-24.6460875 12.16415239 -24.60175837 13.97519143 -24.125 17.3125 C-22.19340549 20.58135225 -20.75781913 22.0171844 -17.3125 23.625 C-8.88785144 25.44208106 -2.03647868 23.63041329 5.25 19.3125 C8.30091732 17.04135116 8.30091732 17.04135116 10.875 14.3125 C11.27453038 11.83538234 11.27453038 11.83538234 11.125 9.1875 C11.10953125 8.29804687 11.0940625 7.40859375 11.078125 6.4921875 C11.11112131 4.33580622 11.11112131 4.33580622 9.875 3.3125 C-0.2234433 2.30543378 -15.49834235 1.02018865 -22.875 9.26953125 Z " fill="#CBF913" transform="translate(175.125,658.6875)"/>
<path d="M0 0 C5.89439088 -0.75247543 9.0787929 0.70057955 13.859375 4.1640625 C17.22964689 7.05462416 19.66398029 10.24236585 22 14 C22.58587891 14.92425781 22.58587891 14.92425781 23.18359375 15.8671875 C29.15433969 26.40894407 29.02419268 39.5071916 26.28125 51.015625 C23.0732628 60.91613722 17.13972743 68.07661726 8.51171875 73.82421875 C4.56712977 75.67075263 2.12871909 75.14686641 -2 74 C-1.505 73.01 -1.505 73.01 -1 72 C0.155 71.62875 1.31 71.2575 2.5 70.875 C9.91901786 68.19776016 15.33802057 62.88237795 18.9375 55.9375 C24.08099111 44.24935987 24.58397407 33.00727536 20 21 C15.27630938 10.6024511 10.43074284 6.27228683 0 2 C0 1.34 0 0.68 0 0 Z " fill="#CBF813" transform="translate(271,620)"/>
<path d="M0 0 C13.47827892 -0.9217668 24.71554205 1.53434133 35.328125 10.3515625 C39.76420039 14.72544992 40.05385741 19.00376907 40.1875 24.9375 C40.05431683 32.45125025 37.87970103 36.54814582 33.046875 42.16796875 C27.01656007 47.56533078 21.31884627 47.3810871 13.625 47.1875 C12.09166016 47.16719727 12.09166016 47.16719727 10.52734375 47.14648438 C8.01767951 47.11130217 5.5091191 47.06207539 3 47 C2.67 46.34 2.34 45.68 2 45 C2.55349121 44.96559814 3.10698242 44.93119629 3.67724609 44.89575195 C18.76307556 44.38094762 18.76307556 44.38094762 32 38 C34.62883266 33.60321817 34.36746902 29.49304165 34.375 24.5 C34.41173828 23.21802734 34.41173828 23.21802734 34.44921875 21.91015625 C34.50562844 16.82432873 34.50562844 16.82432873 32.1171875 12.453125 C30.01951955 11.01339718 28.50497567 10.35785367 26 10 C26 9.01 26 8.02 26 7 C24.046875 7.06510417 22.09375 7.13020833 20.140625 7.1953125 C17.67884671 6.97069769 16.18881919 6.1135352 14 5 C11.81196673 4.62317157 11.81196673 4.62317157 9.5625 4.5 C6.04895799 4.18111417 3.20999394 3.55322287 0 2 C0 1.34 0 0.68 0 0 Z " fill="#CBF814" transform="translate(30,649)"/>
<path d="M0 0 C7.65060242 -0.73250449 13.65934726 0.45266319 20 5 C20.495 6.485 20.495 6.485 21 8 C21.66 8 22.32 8 23 8 C23 8.99 23 9.98 23 11 C23.99 11.33 24.98 11.66 26 12 C27.67907854 15.81608758 27 19.83245802 27 24 C12.15 24 -2.7 24 -18 24 C-18 13.84615385 -18 13.84615385 -15.375 10.75 C-14.82972656 10.10417969 -14.28445313 9.45835937 -13.72265625 8.79296875 C-10.47260942 5.41026695 -7.53760242 2.51253414 -3 1 C-2.625 3.25 -2.625 3.25 -3 6 C-4.96498322 7.38442 -6.97048465 8.71203834 -9 10 C-11.97639866 13.80317606 -13.67629182 17.36702138 -15 22 C-14.01 21.67 -13.02 21.34 -12 21 C-9.41369776 20.91518227 -6.85521944 20.88401771 -4.26953125 20.90234375 C-3.14390022 20.90446617 -3.14390022 20.90446617 -1.99552917 20.90663147 C0.3988546 20.9122244 2.79314453 20.92477556 5.1875 20.9375 C6.81184761 20.94251592 8.43619668 20.94707866 10.06054688 20.95117188 C14.04040069 20.96219152 18.02018444 20.97945127 22 21 C21.55593188 19.55748572 21.10223321 18.11793396 20.64453125 16.6796875 C20.26711792 15.47675049 20.26711792 15.47675049 19.88208008 14.24951172 C17.71232734 8.71613178 13.20315797 6.2990698 8 4 C8 3.01 8 2.02 8 1 C5.36 1 2.72 1 0 1 C0 0.67 0 0.34 0 0 Z " fill="#CBF815" transform="translate(378,628)"/>
<path d="M0 0 C2.58361518 -0.05407567 5.16609255 -0.093707 7.75 -0.125 C8.84441406 -0.15013672 8.84441406 -0.15013672 9.9609375 -0.17578125 C14.74400366 -0.21926367 17.87876151 0.06321703 21.4375 3.3125 C21.953125 3.869375 22.46875 4.42625 23 5 C23.86625 5.804375 24.7325 6.60875 25.625 7.4375 C27.83735509 9.82451471 28.65009937 10.85089431 29 14 C27.68 14.33 26.36 14.66 25 15 C22 11.25 22 11.25 22 9 C20.67661368 8.31379969 19.34050052 7.65213539 18 7 C17.236875 6.62875 16.47375 6.2575 15.6875 5.875 C9.2451116 3.7774782 2.95024532 5.04162287 -3 8 C-8.01905774 12.59190389 -8.23245811 14.92983246 -10 22 C3.2 22 16.4 22 30 22 C30.495 20.515 30.495 20.515 31 19 C31 20.65 31 22.3 31 24 C16.15 24 1.3 24 -14 24 C-14 21.03 -14 18.06 -14 15 C-13.34 15 -12.68 15 -12 15 C-12.103125 14.29875 -12.20625 13.5975 -12.3125 12.875 C-11.86443702 8.75282055 -9.81283682 6.94366644 -7 4 C-4 2 -4 2 0 2 C0 1.34 0 0.68 0 0 Z " fill="#CBF818" transform="translate(516,628)"/>
<path d="M0 0 C4.39577761 -0.05815112 8.79145598 -0.09364767 13.1875 -0.125 C14.43337891 -0.14175781 15.67925781 -0.15851562 16.96289062 -0.17578125 C18.16494141 -0.18222656 19.36699219 -0.18867187 20.60546875 -0.1953125 C22.26292114 -0.21102295 22.26292114 -0.21102295 23.95385742 -0.22705078 C27.03654165 0.00272371 29.21840962 0.6918151 32 2 C32.04241723 4.33294775 32.04092937 6.66702567 32 9 C30.32326351 10.67673649 28.27144924 10.12787817 26.03344727 10.13894653 C25.34178467 10.1369223 24.65012207 10.13489807 23.9375 10.1328125 C23.23101318 10.13376923 22.52452637 10.13472595 21.79663086 10.13571167 C20.30029207 10.13639333 18.80395033 10.13454005 17.30761719 10.13037109 C15.00969843 10.12502257 12.71197514 10.13031651 10.4140625 10.13671875 C8.96354123 10.13605797 7.51302009 10.1347768 6.0625 10.1328125 C5.0250061 10.13584885 5.0250061 10.13584885 3.96655273 10.13894653 C-0.88504776 10.11495224 -0.88504776 10.11495224 -2 9 C-2.04092937 6.66702567 -2.04241723 4.33294775 -2 2 C-1.34 2 -0.68 2 0 2 C0 1.34 0 0.68 0 0 Z " fill="#CCFD02" transform="translate(438,648)"/>
<path d="M0 0 C7.31391596 0.03386072 11.75829266 1.90205257 17 7 C24.74317221 15.49646724 27.0125928 24.56162716 27.23046875 35.8515625 C26.95552547 38.4145931 26.52222722 39.90636617 25 42 C20.83231104 43.22056507 16.71298839 43.0629096 12.41796875 42.9140625 C11.68612869 42.89282318 10.95428864 42.87158386 10.20027161 42.84970093 C8.64946352 42.80354452 7.09873552 42.75462523 5.5480957 42.703125 C3.23337984 42.62651841 0.91854529 42.55855053 -1.39648438 42.4921875 C-11.27949554 42.19509109 -21.13610858 41.67852663 -31 41 C-31 40.67 -31 40.34 -31 40 C-13.18 39.34 4.64 38.68 23 38 C20.17080904 19.37696565 20.17080904 19.37696565 9.0703125 6.44140625 C6.1637372 4.41777175 3.33355385 3.18063365 0 2 C0 1.34 0 0.68 0 0 Z " fill="#CAF914" transform="translate(534,620)"/>
<path d="M0 0 C2.46943529 3.70415293 2.46913089 5.62144505 2 10 C0.5625 11.9375 0.5625 11.9375 -2 13 C-6.22024008 13.43180063 -10.24928033 13.10919559 -14.4375 12.5 C-23.57817582 11.21709813 -32.24340364 12.08113455 -41 15 C-40.42655063 12.13275314 -40.1385485 11.1385485 -38 9 C-35.67724823 8.59952556 -33.34260643 8.2602896 -31 8 C-31 7.34 -31 6.68 -31 6 C-26.05 6 -21.1 6 -16 6 C-16 6.66 -16 7.32 -16 8 C-15.24074219 7.98839844 -14.48148438 7.97679687 -13.69921875 7.96484375 C-12.70535156 7.95582031 -11.71148437 7.94679688 -10.6875 7.9375 C-9.70136719 7.92589844 -8.71523438 7.91429687 -7.69921875 7.90234375 C-5 8 -5 8 -2 9 C-2 7.02 -2 5.04 -2 3 C-2.53625 2.896875 -3.0725 2.79375 -3.625 2.6875 C-6.62502044 1.81907303 -9.2379535 0.44379704 -12 -1 C-12 -1.33 -12 -1.66 -12 -2 C-6.95054598 -3.32247605 -4.4005152 -2.80032785 0 0 Z " fill="#CBF815" transform="translate(65,622)"/>
<path d="M0 0 C2 2 2 2 2.4375 5.3125 C2 9 2 9 0.0625 11.6875 C-7.97667029 17.7578939 -14.6550973 18.50246096 -24.5625 17.75 C-25.66658203 17.68425781 -26.77066406 17.61851562 -27.90820312 17.55078125 C-30.60741073 17.38719291 -33.30353602 17.20321734 -36 17 C-36 16.67 -36 16.34 -36 16 C-32.68784607 15.51842161 -29.37521694 15.04018889 -26.0625 14.5625 C-25.13630859 14.42779297 -24.21011719 14.29308594 -23.25585938 14.15429688 C-17.51218568 13.32801399 -11.77076442 12.60962947 -6 12 C-5.67 11.01 -5.34 10.02 -5 9 C-4.34 8.67 -3.68 8.34 -3 8 C-2.34444881 5.47266765 -2.34444881 5.47266765 -2 3 C-3.60463449 3.31008884 -5.20869231 3.62316287 -6.8125 3.9375 C-7.70582031 4.11152344 -8.59914063 4.28554688 -9.51953125 4.46484375 C-12.11397171 4.97741153 -12.11397171 4.97741153 -15 6 C-16.77313851 6.08209792 -18.54920775 6.10746294 -20.32421875 6.09765625 C-21.35224609 6.09443359 -22.38027344 6.09121094 -23.43945312 6.08789062 C-24.51130859 6.07951172 -25.58316406 6.07113281 -26.6875 6.0625 C-27.77095703 6.05798828 -28.85441406 6.05347656 -29.97070312 6.04882812 C-32.64719085 6.03703743 -35.32356777 6.02058063 -38 6 C-38 5.34 -38 4.68 -38 4 C-30.41 4 -22.82 4 -15 4 C-14.67 2.68 -14.34 1.36 -14 0 C-8.55832108 -1.99898409 -5.59613344 -2.19456213 0 0 Z " fill="#CAF715" transform="translate(556,678)"/>
<path d="M0 0 C0.66 0.33 1.32 0.66 2 1 C2.05607422 2.918125 2.05607422 2.918125 2.11328125 4.875 C2.17898742 6.5833604 2.24543311 8.29169247 2.3125 10 C2.33505859 10.83917969 2.35761719 11.67835938 2.38085938 12.54296875 C2.60910262 17.89631026 2.9664796 24.9664796 7 29 C7.04063832 30.66617115 7.042721 32.33388095 7 34 C7.99 34 8.98 34 10 34 C10 34.66 10 35.32 10 36 C10.66 36 11.32 36 12 36 C12 36.99 12 37.98 12 39 C12.95712891 39.18175781 12.95712891 39.18175781 13.93359375 39.3671875 C15.17302734 39.61855469 15.17302734 39.61855469 16.4375 39.875 C17.26121094 40.03742187 18.08492188 40.19984375 18.93359375 40.3671875 C19.61550781 40.57601562 20.29742187 40.78484375 21 41 C21.33 41.66 21.66 42.32 22 43 C23.97888961 43.72693904 25.97954558 44.39816251 28 45 C28 45.33 28 45.66 28 46 C22.39992448 47.19260867 18.10664302 47.48051241 13.05078125 44.5625 C5.04964701 38.46639772 -0.53658596 31.02300559 -2 21 C-2.00144948 18.13618723 -1.82113999 15.2937886 -1.625 12.4375 C-1.58117187 11.68275391 -1.53734375 10.92800781 -1.4921875 10.15039062 C-1.2703322 6.65308829 -0.92057157 3.37809331 0 0 Z " fill="#CBF913" transform="translate(490,648)"/>
<path d="M0 0 C-0.33 1.32 -0.66 2.64 -1 4 C-18.8532318 9.55696619 -35.26114208 12.95019788 -54 11 C-51.45817383 8.45817383 -49.90672896 8.44226414 -46.3828125 7.8515625 C-44.6493457 7.55318481 -44.6493457 7.55318481 -42.88085938 7.2487793 C-41.64142578 7.04293213 -40.40199219 6.83708496 -39.125 6.625 C-36.5752112 6.1880007 -34.02573306 5.74918512 -31.4765625 5.30859375 C-29.58019043 4.98157471 -29.58019043 4.98157471 -27.64550781 4.64794922 C-21.75502069 3.60097943 -15.89672014 2.40519301 -10.04345703 1.16845703 C-6.59175077 0.45248688 -3.54355561 0 0 0 Z " fill="#0FF5F5" transform="translate(472,104)"/>
<path d="M0 0 C18.38330629 -0.31695356 36.6598163 0.87880513 55 2 C55 2.66 55 3.32 55 4 C38.17 4 21.34 4 4 4 C3.67 7.96 3.34 11.92 3 16 C2.01 18.475 2.01 18.475 1 21 C0.67 21 0.34 21 0 21 C0 14.07 0 7.14 0 0 Z " fill="#11F3F3" transform="translate(343,68)"/>
<path d="M0 0 C0.33 0 0.66 0 1 0 C1.08097324 2.27024968 1.13917704 4.54132075 1.1875 6.8125 C1.23970703 8.70935547 1.23970703 8.70935547 1.29296875 10.64453125 C1 14 1 14 -0.32421875 15.94921875 C-2 17 -2 17 -5 17 C-5.495 18.485 -5.495 18.485 -6 20 C-7.98 20.33 -9.96 20.66 -12 21 C-12.33 21.99 -12.66 22.98 -13 24 C-16.59001609 25.19667203 -19.5904839 25.20538881 -23.375 25.25 C-24.68210937 25.27578125 -25.98921875 25.3015625 -27.3359375 25.328125 C-31.91708789 24.91787273 -34.24732697 23.32961402 -37.8125 20.625 C-39.45014212 18.38401604 -39.21923623 16.70391348 -39 14 C-38.01 14 -37.02 14 -36 14 C-35.67 15.65 -35.34 17.3 -35 19 C-24.32168838 20.26926201 -24.32168838 20.26926201 -14 18 C-13.14148438 17.72671875 -12.28296875 17.4534375 -11.3984375 17.171875 C-8.48543898 16.04697067 -6.37605526 15.03785761 -4 13 C-2.31968095 9.06888321 -1.66373356 5.20149787 -1 1 C-0.67 0.67 -0.34 0.34 0 0 Z " fill="#CBF911" transform="translate(867,661)"/>
</svg>
