<svg width="780" height="330" xmlns="http://www.w3.org/2000/svg">

 <g>
  <title>Layer 1</title>
  <g stroke-width="23" stroke="null">
   <path stroke-dasharray="2,2" stroke="null" fill-rule="evenodd" fill="#00ffff" d="m391.58697,14.259c-0.55939,0.9639 -1.50054,2.60373 -2.09133,3.64381c-0.59079,1.04009 -7.35433,12.71065 -15.03032,25.93459c-7.67545,13.22394 -14.44169,24.89451 -15.03573,25.93459c-0.59404,1.04009 -1.99224,3.47145 -3.10776,5.40304c-1.11552,1.93159 -2.45198,4.24139 -2.97076,5.13289c-0.51877,0.8915 -1.43718,2.47189 -2.04097,3.51198c-0.60379,1.04009 -6.99422,12.10281 -14.20126,24.58383c-7.20704,12.48102 -13.81299,23.86361 -14.67996,25.29487c-0.86697,1.43127 -1.57635,2.68801 -1.57635,2.79229c0,0.10428 -1.13177,2.09368 -2.51534,4.42131c-1.38357,2.32763 -3.07473,5.22528 -3.75812,6.43934c-0.68339,1.21352 -4.66895,8.10564 -8.85649,15.316c-4.18754,7.20982 -7.61371,13.32822 -7.61371,13.59675c0,0.28852 38.94691,0.48789 95.3068,0.48789c66.70718,0 95.3068,-0.17182 95.3068,-0.57218c0,-0.31446 -8.73682,-15.57156 -19.41497,-33.90408c-10.67815,-18.33252 -21.52255,-36.93302 -24.09854,-41.3338c-2.57545,-4.40132 -5.26353,-9.02092 -5.97292,-10.26578c-0.70939,-1.2454 -8.17093,-14.05601 -16.58122,-28.46862c-8.41028,-14.41261 -15.9092,-27.29886 -16.66461,-28.63611c-0.75487,-1.33725 -2.38809,-4.13333 -3.62924,-6.2135c-1.24115,-2.08017 -2.96318,-4.99781 -3.82743,-6.48365c-0.86426,-1.48584 -2.00523,-3.43093 -2.53538,-4.32243c-0.53069,-0.8915 -1.24603,-2.1677 -1.58989,-2.8366c-0.34386,-0.6689 -0.89025,-1.21406 -1.21516,-1.21244c-0.32437,0.00216 -1.04729,0.79209 -1.60614,1.75599m-1.32184,32.11351c-1.18321,2.0229 -7.81732,13.40386 -14.74169,25.29055c-6.92436,11.88669 -13.43772,23.07098 -14.4731,24.85398c-1.03592,1.783 -2.50397,4.33594 -3.26155,5.67319c-0.75758,1.33725 -2.75794,4.74117 -4.4453,7.56426c-1.68736,2.82309 -3.68772,6.227 -4.4453,7.56426c-0.75758,1.33725 -2.22563,3.89019 -3.26209,5.67319c-1.03592,1.783 -6.41263,11.00815 -11.94801,20.50021c-5.53483,9.49206 -9.94169,17.45452 -9.79277,17.69496c0.14838,0.23989 31.31099,0.43657 69.2496,0.43657c37.93861,0 69.10772,-0.20748 69.2653,-0.46142c0.15704,-0.2534 -0.43809,-1.5993 -1.32184,-2.99004c-0.8843,-1.39128 -1.60776,-2.62264 -1.60776,-2.7361c0,-0.114 -1.13664,-2.11097 -2.52563,-4.4386c-1.38899,-2.32763 -3.36823,-5.69102 -4.39819,-7.47403c-1.02996,-1.783 -2.3009,-3.97123 -2.82346,-4.86274c-0.52256,-0.8915 -1.86281,-3.2013 -2.97834,-5.13289c-1.11552,-1.93159 -2.45794,-4.24139 -2.98429,-5.13289c-0.52581,-0.8915 -11.92039,-20.46401 -25.32074,-43.49447c-13.40035,-23.03046 -24.7397,-41.94866 -25.19836,-42.03997c-0.54206,-0.1086 -1.58827,1.12221 -2.98646,3.51198m-3.01191,16.13078c-0.18466,0.48033 -0.33195,6.99261 -0.32762,14.47204c0.00487,7.47889 0.20794,13.91175 0.45162,14.29536c0.32274,0.50735 1.82762,0.65431 5.54242,0.5403l5.09891,-0.15669l0,-14.85836l0,-14.85836l-5.2148,-0.15399c-4.39494,-0.12967 -5.26733,-0.01675 -5.55054,0.71968m-0.00704,45.40445c-0.18087,0.47006 -0.3287,3.2067 -0.3287,6.08166l0,5.2269l-4.0879,2.40489c-2.24837,1.32212 -4.33971,2.70692 -4.64729,3.07703c-0.40343,0.48465 0.02166,1.76301 1.51516,4.56179c1.14152,2.13852 2.45794,4.12684 2.92527,4.41915c0.63845,0.3982 1.93429,-0.09347 5.19801,-1.97157c2.39133,-1.37615 4.787,-2.50215 5.32418,-2.50215c0.53718,0 2.93285,1.12599 5.32418,2.50215c2.99188,1.72195 4.58502,2.35302 5.10812,2.02344c0.41859,-0.26313 1.72798,-2.24226 2.91011,-4.39753c1.18213,-2.15527 2.00469,-4.15224 1.82762,-4.43806c-0.17653,-0.28582 -2.26137,-1.67926 -4.63213,-3.09648l-4.31047,-2.57779l0,-5.2296c0,-2.87604 -0.14783,-5.61376 -0.3287,-6.08382c-0.27022,-0.70294 -1.31913,-0.85476 -5.89873,-0.85476c-4.5796,0 -5.62852,0.15183 -5.89873,0.85476m-36.33951,31.50026c-6.56534,3.81887 -11.99025,7.32004 -12.08447,7.79875c-0.09422,0.47763 0.8231,2.56752 2.03881,4.64445c1.2157,2.07639 2.43466,3.91396 2.70975,4.08362c0.27455,0.16966 3.7435,-1.55499 7.70848,-3.83184c3.96498,-2.27738 8.18339,-4.71145 9.37472,-5.40898c1.19134,-0.69753 3.56697,-2.0337 5.27978,-2.97005c1.86931,-1.02171 3.09801,-2.04937 3.07419,-2.57185c-0.0222,-0.47871 -1.06733,-2.57077 -2.3231,-4.64932c-1.25578,-2.07855 -2.63935,-3.834 -3.07419,-3.90154c-0.43484,-0.06754 -6.15162,2.99545 -12.70396,6.80675m68.244,-2.24442c-1.34729,2.29683 -2.44982,4.34675 -2.44982,4.55584c0,0.2091 0.66986,0.8472 1.48917,1.41776c0.81931,0.5711 6.4527,3.89505 12.51931,7.38704l11.03014,6.34803l0.9509,-1.00118c0.5231,-0.55057 1.83411,-2.60481 2.9139,-4.56449l1.96245,-3.56385l-0.94711,-0.80884c-0.52148,-0.44521 -4.3592,-2.76474 -8.52888,-5.15504c-4.16967,-2.38976 -8.43411,-4.82383 -9.47653,-5.4079c-1.04242,-0.58461 -2.74819,-1.58417 -3.79061,-2.22119c-1.04242,-0.63702 -2.19422,-1.15895 -2.5592,-1.16003c-0.36498,-0.00108 -1.76588,1.87702 -3.11372,4.17385m-36.47489,120.51643c0.0991,0.23287 1.39874,2.06396 2.8879,4.06957c1.48917,2.00561 5.11787,6.86024 8.06371,10.78825c2.94639,3.92855 5.56029,7.40379 5.80884,7.72311c0.27942,0.35822 -2.85,5.00592 -8.1861,12.15684c-4.7518,6.36694 -8.64476,11.7581 -8.6518,11.98124c-0.00704,0.22315 2.88357,0.40523 6.42346,0.40523l6.437,0l6.96065,-9.32024c3.82906,-5.12586 7.50649,-10.04965 8.1731,-10.94116c0.66606,-0.8915 1.49567,-2.16014 1.84332,-2.81877c0.55939,-1.06008 0.313,-1.61929 -2.13736,-4.86274c-1.52328,-2.01587 -4.17834,-5.56027 -5.90036,-7.87763c-1.72148,-2.31682 -4.42364,-5.90282 -6.00433,-7.96948l-2.87383,-3.75673l-6.51227,0c-3.58213,0 -6.43158,0.19019 -6.33195,0.42252"/>
   <path stroke-dasharray="2,2" stroke="null" fill-rule="evenodd" fill="#cdff00" d="m43.80919,243.97033c-2.11624,0.40199 -5.43682,1.48746 -7.3787,2.41246c-1.95704,0.93148 -4.39494,2.6356 -5.46931,3.82211c-1.06624,1.17786 -2.45686,3.15429 -3.08989,4.39213c-0.85451,1.6717 -1.16426,3.31206 -1.20271,6.37289c-0.03466,2.80688 0.24693,4.81141 0.88321,6.2832c0.51444,1.18867 1.83682,3.08514 2.93935,4.21437c1.10198,1.12924 2.7352,2.42164 3.6287,2.87172c0.8935,0.44953 2.9648,1.29997 4.60289,1.8889c1.63809,0.58947 7.17238,1.90511 12.29783,2.92413c5.12599,1.01901 10.40252,2.36059 11.72599,2.9814c1.32346,0.62081 2.81101,1.57445 3.30541,2.11961c0.4944,0.54517 0.92004,1.73221 0.94603,2.63722c0.02545,0.90501 -0.37581,2.28981 -0.89296,3.07649c-0.51661,0.78722 -2.01661,1.90619 -3.33357,2.48756c-1.31643,0.58083 -4.16642,1.25459 -6.33249,1.49718c-2.16606,0.2426 -5.45848,0.23341 -7.31642,-0.02053c-1.85848,-0.2534 -4.31155,-0.93581 -5.45144,-1.51555c-1.13989,-0.58029 -2.83808,-1.9251 -3.77328,-2.98788c-0.93574,-1.06332 -1.8639,-2.59724 -2.06318,-3.40878c-0.19874,-0.81208 -0.6287,-1.65495 -0.95523,-1.87323c-0.32653,-0.21828 -3.35794,-0.40037 -6.73646,-0.40523l-6.14296,-0.0081l0.3639,2.63993c0.20036,1.4518 0.94928,3.79239 1.66408,5.20205c0.71534,1.40911 1.9213,3.37474 2.67996,4.36728c0.75921,0.99254 2.89657,2.86631 4.74964,4.16304c1.85361,1.29673 5.07563,2.91116 7.16047,3.58654c2.84079,0.92122 5.55487,1.29781 10.83032,1.50313c4.07166,0.15885 8.36371,0.02593 10.1805,-0.31446c1.72744,-0.32418 5.13899,-1.52474 7.58122,-2.66856c2.85866,-1.33833 5.09296,-2.82201 6.27184,-4.1652c1.00668,-1.14761 2.40541,-3.31801 3.1083,-4.82329c0.93357,-2.00021 1.27527,-3.68217 1.2704,-6.24862c-0.00433,-2.36167 -0.36715,-4.30838 -1.1074,-5.94334c-0.60541,-1.33725 -2.0009,-3.36393 -3.1018,-4.50397c-1.10036,-1.14004 -3.19061,-2.68045 -4.64458,-3.42229c-1.45451,-0.74238 -4.01317,-1.78516 -5.68592,-2.3179c-1.67328,-0.5322 -4.74801,-1.35995 -6.83285,-1.83919c-2.08484,-0.47979 -5.90848,-1.35292 -8.49693,-1.94077c-2.58899,-0.58785 -5.80559,-1.58471 -7.14909,-2.21471c-1.82599,-0.85638 -2.59007,-1.59336 -3.02924,-2.92088c-0.43484,-1.31402 -0.41967,-2.14285 0.05686,-3.18671c0.36715,-0.80397 1.71552,-1.93753 3.13321,-2.63452c2.02744,-0.99686 3.3926,-1.22379 7.36245,-1.22379c2.96967,0 5.6139,0.30095 6.76895,0.76993c1.04242,0.42306 2.54621,1.21622 3.34169,1.76247c0.79549,0.54571 2.07509,2.11421 2.84296,3.4855c0.76841,1.37129 1.39657,2.82687 1.39657,3.23534c0,0.59055 1.39765,0.74238 6.82743,0.74238l6.82797,0l-0.34495,-1.48584c-0.19007,-0.81694 -0.8361,-2.83281 -1.4361,-4.47966c-0.6,-1.64631 -1.99874,-4.19924 -3.10776,-5.67319c-1.10902,-1.47341 -3.54693,-3.70595 -5.41787,-4.96053c-1.87094,-1.25513 -5.03502,-2.76366 -7.0305,-3.35313c-1.99603,-0.58947 -5.82184,-1.19785 -8.50234,-1.3513c-3.02437,-0.1729 -6.33411,-0.00162 -8.7222,0.45223m45.15647,6.66843l-0.15271,6.34857l-2.84296,0.16317l-2.84296,0.16371l0,5.10425l0,5.10479l2.97834,0l2.97834,0l0.01083,10.1307c0.00596,5.57216 0.25397,11.81105 0.5518,13.86474c0.34386,2.37518 1.1204,4.73468 2.13303,6.48365c0.87617,1.51231 2.39946,3.28991 3.3861,3.95016c0.98664,0.66079 2.64097,1.51069 3.67743,1.88944c1.25794,0.46034 5.03122,0.68943 11.35992,0.69051l9.47653,0.00162l0.15433,-5.53812l0.15433,-5.53812l-7.54278,0l-7.54278,0l-1.68195,-1.56742l-1.68195,-1.56742l0,-11.38691l0,-11.38691l9.07039,-0.14804l9.07039,-0.14804l0.15542,-4.98484l0.15542,-4.9843l-9.09043,-0.14858l-9.09043,-0.14804l-0.15271,-6.34857l-0.15217,-6.34857l-6.19332,0l-6.19332,0l-0.15217,6.34857m90.14074,23.77338l0.13971,30.12195l5.95668,0l5.95668,0l0.17004,-2.36437l0.16949,-2.36437l1.45505,1.37994c0.79982,0.75913 2.79476,1.91754 4.43285,2.57401c2.1926,0.87961 4.52978,1.26485 8.85974,1.46152c3.83718,0.17452 6.94332,0.02269 8.93501,-0.43657c1.67978,-0.3874 4.40252,-1.36967 6.05198,-2.18283c1.64892,-0.81316 4.02617,-2.5913 5.28249,-3.95124c1.25632,-1.35995 2.8852,-3.82805 3.61949,-5.48463c0.7343,-1.65657 1.60614,-5.04536 1.93754,-7.53076c0.43863,-3.28775 0.44188,-5.83853 0.01245,-9.36401c-0.32491,-2.66478 -1.10794,-6.02709 -1.74097,-7.47132c-0.63249,-1.44477 -2.20505,-3.87074 -3.49549,-5.39061c-1.47184,-1.73438 -3.41155,-3.26398 -5.20884,-4.10793c-1.57473,-0.73968 -4.20379,-1.67602 -5.84187,-2.08071c-1.6565,-0.40955 -5.62148,-0.72401 -8.93501,-0.7078c-4.16263,0.01999 -6.66335,0.29663 -8.30252,0.91906c-1.29043,0.48952 -3.42238,1.61497 -4.73826,2.50107l-2.39242,1.61065l0,-8.62649l0,-8.62649l-6.23177,0l-6.23231,0l0.14025,30.12195m56.72813,0.13508l0,30.25702l5.95668,0l5.95668,0l0,-30.25702l0,-30.25702l-5.95668,0l-5.95668,0l0,30.25702m250.18036,0l0,30.25702l5.95668,0l5.95668,0l0.00325,-13.64268c0.00162,-7.93707 0.2426,-14.50446 0.57671,-15.70394c0.31516,-1.13356 1.4935,-2.97924 2.61823,-4.10145c1.37383,-1.37075 2.91769,-2.26225 4.70307,-2.71557c1.46209,-0.37173 4.03971,-0.65917 5.72816,-0.63918c1.68899,0.01999 4.12581,0.44305 5.41516,0.94067c1.28989,0.49708 3.03628,1.53662 3.88104,2.30926c0.84476,0.77263 1.81949,1.89106 2.16606,2.4854c0.41805,0.71698 0.7213,6.08328 0.90108,15.93897l0.27076,14.85836l6.14079,0.15345l6.14133,0.15291l-0.22094,-15.82172l-0.2204,-15.82226l-1.31751,-3.45524c-0.93899,-2.46271 -2.19585,-4.36458 -4.37653,-6.62359c-1.83628,-1.90187 -4.21733,-3.69676 -5.95668,-4.48993c-1.59368,-0.72725 -4.71173,-1.602 -6.9287,-1.94401c-2.24133,-0.34633 -5.46823,-0.46034 -7.26769,-0.25718c-1.77996,0.20099 -4.45451,0.82721 -5.94368,1.39128c-1.48863,0.56462 -3.51823,1.8111 -4.51029,2.77068l-1.80325,1.74356l0,-9.02092l0,-9.02092l-5.95668,0l-5.95668,0l0,30.25702m-344.40413,-18.06182c-0.74458,0.12805 -2.69404,0.50518 -4.33213,0.83747c-1.63809,0.33229 -4.08628,1.16165 -5.44007,1.84352c-1.35379,0.68132 -3.52364,2.29359 -4.8222,3.58222c-1.29856,1.28863 -3.1148,3.92369 -4.03646,5.85527l-1.67599,3.51198l0,8.10456c0,7.06069 0.16083,8.56922 1.24874,11.71055c0.93357,2.69558 1.96516,4.34999 4.08465,6.55065c1.55902,1.61929 3.81444,3.44282 5.01065,4.05174c1.19675,0.60892 3.74512,1.51555 5.66317,2.01479c2.62798,0.68348 5.08863,0.85476 9.98555,0.69483c5.59765,-0.18316 6.8361,-0.39388 8.93501,-1.52096c1.34025,-0.71968 3.22852,-2.0337 4.19675,-2.92034l1.75993,-1.61227l0,2.80742l0,2.80742l5.95668,0l5.95668,0l0,-23.77338l0,-23.77338l-5.92689,0l-5.92689,0l-0.16516,2.55672l-0.16516,2.55618l-2.16606,-1.93375c-1.19134,-1.06332 -3.38447,-2.3487 -4.87364,-2.85605c-1.48917,-0.50681 -4.77888,-1.01361 -7.31046,-1.12491c-2.53159,-0.11184 -5.21209,-0.09834 -5.95668,0.02972m130.58711,0.2842c-1.89097,0.28744 -4.81516,1.08439 -6.49819,1.77112c-1.68303,0.68673 -3.96552,1.86567 -5.07184,2.61993c-1.10632,0.75426 -2.58411,2.06936 -3.28429,2.92142c-0.70018,0.8526 -1.77509,2.40111 -2.38917,3.4412c-0.61408,1.04009 -1.49079,3.10675 -1.94837,4.59258c-0.45758,1.48584 -0.97689,4.29866 -1.15451,6.25078c-0.19332,2.12285 -0.01949,5.28363 0.43213,7.86521c0.41534,2.37356 1.41606,5.61754 2.22401,7.2082c0.80848,1.5912 2.66047,4.05066 4.1166,5.46572c1.93429,1.87972 3.85234,3.04677 7.12202,4.33324c3.81011,1.4988 5.3361,1.79435 10.27526,1.9921c3.19007,0.12751 7.42797,-0.05133 9.41696,-0.39658c1.98899,-0.34579 5.10541,-1.30429 6.92491,-2.12988c1.82004,-0.82558 4.47725,-2.6383 5.90577,-4.02743c1.45939,-1.41938 3.29729,-4.00311 4.19621,-5.8985c0.87942,-1.8554 1.59964,-3.79888 1.59964,-4.31865c0.00054,-0.84504 -0.65199,-0.94553 -6.12996,-0.94553l-6.1305,0l-2.51697,2.40597c-1.513,1.44639 -3.44079,2.67234 -4.83465,3.07487c-1.27527,0.36741 -4.39007,0.66349 -6.92166,0.65755c-3.77328,-0.00919 -4.99332,-0.23179 -6.76895,-1.23622c-1.19134,-0.67376 -2.7379,-1.74896 -3.437,-2.38868c-0.6991,-0.63918 -1.73502,-2.06504 -2.30144,-3.16726c-0.56697,-1.10276 -1.0305,-2.50053 -1.0305,-3.10675l0,-1.10222l20.59277,0l20.59277,0l-0.33249,-3.64705c-0.18249,-2.00561 -0.69531,-4.96431 -1.13935,-6.57442c-0.44458,-1.61011 -1.60018,-4.16304 -2.56949,-5.67319c-0.96877,-1.51015 -2.66263,-3.53467 -3.76408,-4.49857c-1.1009,-0.9639 -3.03032,-2.27576 -4.28718,-2.91548c-1.25632,-0.63972 -3.62545,-1.47503 -5.26462,-1.85594c-1.63917,-0.38091 -5.05126,-0.81586 -7.58285,-0.9666c-2.53159,-0.1502 -6.15,-0.03836 -8.04097,0.24908m79.51674,-0.09834c-1.64025,0.22909 -3.95523,0.72455 -5.1444,1.10168c-1.18863,0.37713 -3.62382,1.49124 -5.41083,2.47567c-1.787,0.98497 -4.17292,2.90035 -5.30198,4.25651c-1.12906,1.3567 -2.63068,3.99879 -3.33736,5.87148c-0.70668,1.87323 -1.44856,5.34036 -1.64837,7.70528c-0.20253,2.39085 -0.11155,5.85906 0.20469,7.81172c0.33303,2.05532 1.41877,5.18584 2.61823,7.54751c1.56769,3.08676 2.77581,4.61744 5.13953,6.51228c2.00144,1.60416 4.48159,2.94304 7.03971,3.79888c3.44133,1.15193 4.92563,1.32212 11.53104,1.32212c6.5388,0 8.08483,-0.17344 11.24458,-1.26215c2.01444,-0.69429 4.84548,-2.15311 6.29133,-3.24182c1.44531,-1.08871 3.26751,-2.74204 4.04946,-3.67461c0.78195,-0.93202 2.03014,-2.99869 2.77419,-4.59258c0.7435,-1.59336 1.35433,-3.32341 1.35704,-3.84318c0.00487,-0.8472 -0.65632,-0.94553 -6.3574,-0.94553l-6.36281,0l-1.45018,1.81326c-0.79711,0.9974 -2.62473,2.37031 -4.06137,3.05164c-2.10541,0.99848 -3.55451,1.24216 -7.48483,1.25945c-3.82202,0.01675 -5.39946,-0.22044 -7.31046,-1.1006c-1.34025,-0.61703 -3.2139,-1.93915 -4.16372,-2.93763c-0.94928,-0.99902 -1.9852,-2.50053 -2.30144,-3.33692c-0.3157,-0.83639 -0.57455,-1.98832 -0.57455,-2.55996l0,-1.039l20.44223,-0.14156l20.44223,-0.14156l-0.1565,-2.97167c-0.0861,-1.63442 -0.42401,-4.18736 -0.75162,-5.67319c-0.32708,-1.48584 -1.28014,-4.06795 -2.11733,-5.73803c-0.85451,-1.70466 -2.66209,-4.03931 -4.12202,-5.32308c-1.4296,-1.25783 -3.46733,-2.73016 -4.52761,-3.271c-1.06029,-0.54084 -3.37527,-1.35346 -5.1444,-1.8057c-1.76913,-0.45223 -5.2879,-0.93905 -7.81949,-1.08277c-2.53159,-0.14318 -5.94476,-0.07348 -7.58556,0.15507m98.28947,0.00973c-1.48917,0.24152 -3.92599,0.81316 -5.41516,1.26917c-1.48917,0.45656 -3.46733,1.21839 -4.39548,1.69331c-0.92816,0.47493 -2.82834,1.86513 -4.2222,3.08946c-1.3944,1.22379 -3.15541,3.44822 -3.91408,4.94162c-0.75866,1.49394 -1.72202,4.02797 -2.14061,5.63159c-0.41859,1.60308 -0.76083,5.17233 -0.76083,7.9322c0,3.6249 0.31408,5.979 1.13231,8.48331c0.62274,1.90619 1.59585,4.2214 2.16227,5.14423c0.56643,0.92338 2.21155,2.78149 3.65632,4.13008c1.44422,1.34806 3.33466,2.80148 4.20054,3.22994c0.86588,0.42846 3.38285,1.33563 5.59386,2.01641c3.59512,1.10654 4.76696,1.20704 11.10108,0.95418c5.3648,-0.21396 7.84981,-0.56354 10.25144,-1.44261c1.74368,-0.6381 4.43231,-2.0899 5.97455,-3.22724c1.54278,-1.1368 3.51065,-2.99058 4.37382,-4.11982c0.86318,-1.1287 2.1287,-3.40932 2.81209,-5.06697c0.68393,-1.65819 1.24874,-3.56222 1.25578,-4.23058l0.013,-1.21568l-5.94964,0l-5.95018,0l-1.3305,2.1034c-0.73213,1.15625 -2.04964,2.61399 -2.92906,3.23858c-0.87888,0.62405 -3.14025,1.5296 -5.02473,2.01101c-2.40812,0.61595 -4.45072,0.77155 -6.874,0.52355c-1.89585,-0.19397 -4.52274,-0.85692 -5.83808,-1.47395c-1.3148,-0.61649 -3.0861,-2.00561 -3.93628,-3.08676c-0.84964,-1.08061 -1.85361,-2.91224 -2.23105,-4.06957c-0.40884,-1.25513 -0.57617,-3.46659 -0.41426,-5.4803c0.16895,-2.1007 0.74242,-4.21221 1.51733,-5.58782c0.68502,-1.21622 2.16119,-2.84416 3.2805,-3.61842c1.11931,-0.77372 2.9648,-1.6274 4.1009,-1.89647c1.13664,-0.26907 3.53664,-0.51059 5.33285,-0.53706c2.02419,-0.03026 4.474,0.37497 6.44079,1.0644c1.74531,0.61216 3.63411,1.52906 4.19675,2.03695c0.56264,0.50789 1.5222,1.73005 2.13249,2.71503l1.10957,1.79165l6.18357,0c5.18014,0 6.18303,-0.13346 6.18303,-0.82396c0,-0.45332 -0.47545,-2.17418 -1.05704,-3.82427c-0.58105,-1.64955 -1.94242,-4.15926 -3.02545,-5.57594c-1.08303,-1.41722 -3.47058,-3.5552 -5.30631,-4.75197c-1.99549,-1.30105 -4.80866,-2.53997 -6.99801,-3.08189c-2.0139,-0.49816 -5.66913,-1.00118 -8.12274,-1.11735c-2.45415,-0.11617 -5.67996,-0.01351 -7.16913,0.22855m113.12647,0.01729c-1.21895,0.26043 -3.32762,0.99524 -4.68628,1.63226c-1.35812,0.63702 -2.89657,1.62902 -3.41805,2.2039c-0.52148,0.57488 -1.15397,1.04549 -1.40578,1.04549c-0.2518,0 -0.45758,-0.97255 -0.45758,-2.16122l0,-2.16122l-5.95668,0l-5.95668,0l0,23.79175l0,23.79175l5.8213,-0.15345l5.8213,-0.15345l0.27076,-14.58821c0.20307,-10.92819 0.45704,-14.92698 1.01372,-15.93897c0.40884,-0.74292 1.37653,-2.0283 2.1509,-2.85659c0.80957,-0.86503 2.62419,-1.85811 4.26715,-2.33465c1.57256,-0.45602 4.13881,-0.82937 5.70325,-0.82937c1.56444,0 4.06191,0.40739 5.55,0.90555c1.48754,0.49762 3.15758,1.30537 3.71101,1.79435c0.55343,0.48898 1.52816,1.61875 2.16606,2.51025l1.15993,1.62091l0.27076,14.85836l0.27076,14.85836l5.95668,0l5.95668,0l0.15325,-12.15684c0.08393,-6.68626 -0.09043,-14.16623 -0.38773,-16.62137c-0.34549,-2.85605 -1.10469,-5.67914 -2.1065,-7.83441c-0.93899,-2.02128 -2.54729,-4.27056 -4.01805,-5.62024c-1.34892,-1.23784 -3.2361,-2.65505 -4.19404,-3.14943c-0.95794,-0.49438 -2.87437,-1.25026 -4.25848,-1.67926c-1.38466,-0.42954 -4.46642,-0.8861 -6.84909,-1.01469c-2.38267,-0.12859 -5.3296,-0.02053 -6.54855,0.24044m50.73029,0.09023c-1.61155,0.26691 -3.99585,0.84612 -5.29873,1.28754c-1.30289,0.44143 -3.03032,1.21136 -3.83881,1.71114c-0.80848,0.49978 -2.16823,1.53338 -3.02058,2.29629c-0.85289,0.76291 -2.09404,2.23848 -2.75848,3.27856c-0.66444,1.04009 -1.72689,3.28127 -2.36155,4.98052c-0.63412,1.69926 -1.30722,4.9816 -1.49513,7.2941c-0.18845,2.3125 -0.07094,6.14974 0.26047,8.52708c0.38177,2.73934 1.21245,5.56783 2.26841,7.72311c0.91679,1.86999 2.68159,4.38511 3.9222,5.5889c1.24061,1.20326 3.47437,2.72583 4.96353,3.38338c1.48917,0.65701 4.07924,1.51717 5.75523,1.91051c2.00198,0.47006 5.16119,0.63216 9.20577,0.47115c4.60343,-0.18262 6.77491,-0.51923 8.6009,-1.33347c1.3435,-0.5992 3.21877,-1.86351 4.16697,-2.80904l1.72365,-1.72033l0.16516,2.57833l0.1657,2.57779l5.95668,0l5.95668,0l0.14134,-23.6383l0.14079,-23.6383l-6.23285,0l-6.23339,0l0,2.53349l0,2.53295l-1.03592,-1.10924c-0.56967,-0.61 -1.89206,-1.63766 -2.93935,-2.28332c-1.04729,-0.64566 -3.56588,-1.52528 -5.59765,-1.95482c-2.03177,-0.42954 -5.03447,-0.75643 -6.67256,-0.72725c-1.63809,0.02972 -4.29693,0.27231 -5.90848,0.53922m58.70628,-0.30959c-0.59567,0.1367 -2.42328,0.51437 -4.06137,0.83909c-1.63809,0.32418 -3.83123,0.97093 -4.87364,1.43721c-1.04242,0.46574 -2.89928,1.64739 -4.12689,2.62534c-1.22708,0.97795 -2.9778,2.9425 -3.89025,4.36566c-0.91245,1.42316 -2.16227,4.40618 -2.77744,6.62899c-0.72726,2.62642 -1.11877,5.65698 -1.11877,8.65567c0,2.98788 0.39043,6.01953 1.10686,8.60002c0.60921,2.19255 1.96462,5.27445 3.01191,6.84943c1.04783,1.57499 3.02166,3.60167 4.38682,4.50343c1.36462,0.90231 3.84747,2.18013 5.51696,2.84038c2.61119,1.03252 4.09386,1.20326 10.61642,1.22487l7.58122,0.02539l2.97834,-1.41776c1.63809,-0.7802 3.5166,-1.93483 4.174,-2.56644c0.65794,-0.63216 1.3278,-1.14869 1.48917,-1.14869c0.16137,0 0.28809,1.51988 0.28159,3.3769c-0.00758,2.11853 -0.38773,4.20302 -1.02076,5.59377c-0.55505,1.21947 -1.69007,2.84686 -2.52184,3.6168c-0.83177,0.76939 -2.74819,1.81326 -4.25902,2.31898c-1.51029,0.50572 -4.26498,0.91473 -6.1213,0.90879c-2.54512,-0.0081 -4.10361,-0.36633 -6.33519,-1.45558c-1.88827,-0.92176 -3.37743,-2.11961 -4.11444,-3.30936l-1.15505,-1.86513l-6.76137,0l-6.76137,0l0.35957,1.21568c0.19765,0.66836 0.93195,2.49296 1.63159,4.0539c0.70018,1.56094 2.5018,4.13441 4.00397,5.71966c1.65812,1.74896 4.06408,3.5271 6.1213,4.52343c1.86444,0.90285 4.68141,1.91538 6.25938,2.24983c1.57852,0.33445 4.60884,0.60784 6.73429,0.60784c2.2657,0 5.55974,-0.46952 7.96083,-1.13518c2.25271,-0.62405 5.52292,-1.88728 7.2666,-2.80688c1.81949,-0.95958 4.32563,-2.95492 5.8787,-4.68065c1.48917,-1.65495 3.21985,-4.22085 3.84585,-5.70291l1.13827,-2.69396l0.18682,-26.60997l0.18628,-26.60997l-6.25559,0l-6.25559,0l0,2.53727l0,2.53727l-1.78971,-1.73059c-0.98448,-0.95202 -3.22527,-2.23416 -4.97978,-2.84956c-1.93809,-0.6797 -5.00794,-1.19785 -7.8222,-1.31996c-2.54783,-0.1113 -5.11949,-0.08969 -5.71516,0.04701m58.75448,0.02702c-1.04242,0.11833 -3.46949,0.61973 -5.3935,1.11411c-1.92401,0.49492 -4.89747,1.73113 -6.60758,2.74745c-1.71011,1.01631 -3.98447,2.91386 -5.05397,4.21653c-1.07004,1.30267 -2.43249,3.46767 -3.02816,4.81141c-0.59621,1.34374 -1.36029,4.50668 -1.69819,7.02936c-0.43917,3.27208 -0.45487,5.78828 -0.05523,8.78318c0.34549,2.59184 1.19458,5.54082 2.22022,7.7096c0.91354,1.93159 2.59386,4.38565 3.73429,5.45329c1.14043,1.06764 2.80451,2.43137 3.69801,3.03057c0.8935,0.5992 3.20848,1.67008 5.1444,2.38004c3.1083,1.1395 4.43826,1.29079 11.37183,1.29187c6.28321,0.00108 8.44711,-0.20261 10.83032,-1.01847c1.63809,-0.5603 3.98826,-1.602 5.22238,-2.31412c1.23411,-0.71158 3.36336,-2.48864 4.73177,-3.948c1.36841,-1.45936 3.09964,-4.03499 3.84801,-5.7229c0.74838,-1.68791 1.36029,-3.40337 1.36029,-3.81184c0,-0.58839 -1.31047,-0.74346 -6.27563,-0.74346l-6.27563,0l-2.26679,2.32709c-1.56823,1.61011 -3.09747,2.56428 -4.96083,3.0954c-1.48159,0.42306 -4.6435,0.7521 -7.02617,0.73211c-3.33628,-0.02864 -4.924,-0.31932 -6.90704,-1.26539c-1.41606,-0.67592 -3.27238,-2.11313 -4.12473,-3.19428c-0.8518,-1.08061 -1.7231,-2.57293 -1.93538,-3.31585c-0.21227,-0.74292 -0.50469,-1.77652 -0.65036,-2.29629l-0.26426,-0.94553l20.61443,0l20.61389,0l0,-3.42283c0,-2.01912 -0.46679,-4.84383 -1.13881,-6.88888c-0.62599,-1.90619 -1.39657,-3.95232 -1.71227,-4.54666c-0.3157,-0.59433 -1.31209,-1.99967 -2.21426,-3.12296c-0.90162,-1.12329 -2.98484,-2.93277 -4.6278,-4.02094c-1.6435,-1.08817 -4.50704,-2.39895 -6.36281,-2.91278c-1.85632,-0.51329 -5.5213,-1.04873 -8.14494,-1.18921c-2.62364,-0.14102 -5.6231,-0.15939 -6.66552,-0.0416m-316.72183,4.33486c-1.52491,1.97049 -2.77256,3.81239 -2.77256,4.0928c0,0.27988 1.27906,2.30872 2.84296,4.5083c1.5639,2.19958 3.09639,4.00473 3.40614,4.01176c0.31029,0.00702 3.17328,-3.50549 6.36281,-7.80523c3.19007,-4.30028 5.79964,-7.94733 5.79964,-8.10456c0,-0.15777 -2.89494,-0.28636 -6.43321,-0.28636l-6.43375,0l-2.77202,3.5833m-269.95219,7.24223c-1.45668,0.24908 -3.40614,0.75372 -4.33213,1.12167c-0.92545,0.36741 -2.38159,1.14869 -3.23502,1.736c-0.85343,0.58731 -2.13032,2.30764 -2.83754,3.82319c-0.84801,1.81758 -1.28772,3.74485 -1.29097,5.66401c-0.00325,1.59984 0.27726,3.85075 0.62328,5.00213c0.34549,1.15085 1.41011,3.00409 2.36534,4.11766c1.11065,1.29457 2.78772,2.41354 4.65108,3.10243c2.14007,0.79155 4.13881,1.06224 7.52382,1.01955c3.48628,-0.0443 5.13574,-0.32742 6.76895,-1.16057c1.18809,-0.60568 2.80614,-1.70088 3.59621,-2.43353c0.79061,-0.73265 1.85686,-2.14231 2.37022,-3.13322c0.62708,-1.20866 0.94711,-3.14295 0.97419,-5.88229c0.02924,-2.95492 -0.23123,-4.60339 -0.9444,-5.97252c-0.54152,-1.04009 -1.50487,-2.46163 -2.14007,-3.15916c-0.6352,-0.69753 -2.00794,-1.69818 -3.05036,-2.22335c-1.04242,-0.52518 -2.87003,-1.12599 -4.06137,-1.33509c-1.19134,-0.2091 -2.65343,-0.46088 -3.2491,-0.55975c-0.59567,-0.09888 -2.27491,0.02377 -3.73213,0.27285m58.69599,0.03944c-1.34025,0.19289 -3.25397,0.61379 -4.25252,0.93473c-0.99856,0.32094 -2.61065,1.18867 -3.58213,1.92835c-0.97202,0.73968 -2.28736,2.44866 -2.9231,3.7978c-0.8296,1.76139 -1.15235,3.48442 -1.14368,6.10652c0.00758,2.35789 0.36173,4.42077 0.99801,5.81907c0.5426,1.19083 1.85632,2.92791 2.91985,3.85993c1.06354,0.93148 2.86895,2.01479 4.01101,2.40705c1.1426,0.39172 4.14855,0.72077 6.68014,0.73049c3.62058,0.01405 5.12274,-0.23017 7.03971,-1.14436c1.34025,-0.63972 3.09422,-1.85432 3.89729,-2.6999c0.80307,-0.84558 1.83899,-2.44109 2.30144,-3.54602c0.48574,-1.16057 0.8361,-3.55628 0.82906,-5.67319c-0.00758,-2.40003 -0.35686,-4.40996 -1.01155,-5.82556c-0.54964,-1.18867 -1.58339,-2.69666 -2.29711,-3.35097c-0.71318,-0.65485 -2.18231,-1.55878 -3.26372,-2.00993c-1.08195,-0.45115 -3.2713,-1.01469 -4.86606,-1.25242c-1.59476,-0.23773 -3.99639,-0.27447 -5.33664,-0.08159m72.06277,0.07132c-1.61588,0.23557 -4.01859,0.96714 -5.33935,1.62523c-1.3213,0.65863 -2.8852,1.80894 -3.47599,2.55726l-1.07383,1.36049l6.57942,0.15183c3.61895,0.08375 9.42888,0.08375 12.91136,0l6.33195,-0.15183l-2.14224,-2.03154c-1.17834,-1.11735 -3.00595,-2.29737 -4.06137,-2.6221c-1.05541,-0.32472 -3.0157,-0.75426 -4.35595,-0.95418c-1.34025,-0.20045 -3.75866,-0.17128 -5.374,0.06484m79.14526,-0.01513c-1.56931,0.23071 -3.64061,0.74832 -4.60289,1.15085c-0.96227,0.40253 -2.54133,1.39777 -3.50956,2.212c-0.96823,0.81478 -1.75993,1.7025 -1.75993,1.97319c0,0.28204 5.32256,0.49222 12.45487,0.49222c8.30306,0 12.45487,-0.18803 12.45487,-0.56462c0,-0.31067 -0.61137,-1.17516 -1.3592,-1.92078c-0.74729,-0.74616 -2.27003,-1.73654 -3.38447,-2.2012c-1.1139,-0.46466 -3.24368,-1.00605 -4.73285,-1.20272c-1.48917,-0.19721 -3.99151,-0.16912 -5.56083,0.06105m263.59316,0.12211c-1.93592,0.33931 -4.12906,0.94067 -4.87364,1.33671c-0.74458,0.3955 -2.0231,1.34212 -2.84133,2.10394c-0.81823,0.76129 -1.97599,2.68585 -2.5722,4.27651c-0.59675,1.59066 -1.08195,3.67353 -1.0787,4.62824c0.00325,0.95418 0.35415,2.88036 0.77978,4.27975c0.42563,1.39939 1.32617,3.28991 2.00144,4.20086c0.67473,0.91149 2.57816,2.3125 4.22924,3.11431c2.61119,1.26863 3.6352,1.45288 7.87527,1.41722c3.88863,-0.03242 5.39621,-0.28852 7.46046,-1.26755c1.4231,-0.67484 3.40289,-2.17797 4.39982,-3.33962c1.02184,-1.19137 1.95758,-2.9895 2.14549,-4.1209c0.18303,-1.10492 0.33357,-3.10243 0.3352,-4.43968c0.00162,-1.33725 -0.24368,-3.31855 -0.54585,-4.40294c-0.30162,-1.08439 -1.49025,-2.93979 -2.64097,-4.12306c-1.31534,-1.35238 -3.07148,-2.45838 -4.72798,-2.97762c-1.44964,-0.45386 -3.48845,-0.93311 -4.53086,-1.0644c-1.04242,-0.13129 -3.47924,0.0389 -5.41516,0.37821m58.48372,-0.41441c-0.74458,0.1113 -2.45036,0.48033 -3.79061,0.81964c-1.34025,0.33931 -3.38556,1.35454 -4.54548,2.25577c-1.1778,0.91473 -2.59061,2.72367 -3.20036,4.09767c-0.65794,1.48259 -1.0944,3.63949 -1.09928,5.43114c-0.00379,1.63442 0.28809,4.00473 0.64928,5.26742c0.38393,1.34374 1.5092,3.13701 2.71245,4.32243c1.25632,1.23784 3.09206,2.33519 4.71769,2.81985c1.46372,0.43657 4.61047,0.78128 6.99314,0.76669c3.15162,-0.01999 5.0009,-0.32742 6.78736,-1.12924c1.35,-0.60676 3.22527,-1.97805 4.16697,-3.04785c0.9417,-1.07034 1.96787,-2.86415 2.28032,-3.9869c0.31245,-1.12221 0.56318,-3.01328 0.55776,-4.20194c-0.00542,-1.18867 -0.25668,-3.22832 -0.5583,-4.53207c-0.30108,-1.30429 -1.04513,-3.00625 -1.65379,-3.78213c-0.60866,-0.77642 -2.0648,-2.05748 -3.23664,-2.8474c-1.27148,-0.85692 -3.27509,-1.58093 -4.96678,-1.79489c-1.55957,-0.19775 -3.2009,-0.42684 -3.64765,-0.51005c-0.44675,-0.08267 -1.42148,-0.05943 -2.16606,0.05187m57.9422,0.0335c-0.74458,0.08105 -2.63556,0.429 -4.20162,0.77318c-1.82978,0.40253 -3.62058,1.28592 -5.00902,2.47189c-1.18863,1.01523 -2.16119,2.0699 -2.16119,2.34384c0,0.2896 5.21426,0.49816 12.45487,0.49816c6.85018,0 12.44729,-0.18208 12.43754,-0.40523c-0.00921,-0.22315 -0.31408,-0.77912 -0.67689,-1.23568c-0.36282,-0.45656 -1.39061,-1.32861 -2.28411,-1.93807c-0.8935,-0.60946 -2.72112,-1.37778 -4.06137,-1.70682c-1.34025,-0.32959 -3.04603,-0.67754 -3.79061,-0.77372c-0.74458,-0.09563 -1.963,-0.10806 -2.70758,-0.02756m-319.71696,24.14673c-1.66462,2.2066 -3.02653,4.28677 -3.02653,4.6223c0,0.33607 1.26227,2.29899 2.80559,4.36295l2.80505,3.75241l6.40072,0c3.51985,0 6.40018,-0.20964 6.40018,-0.46574c0,-0.25664 -0.66986,-1.33779 -1.48917,-2.40327c-0.81931,-1.06548 -3.43863,-4.61095 -5.8213,-7.87925c-2.38267,-3.26884 -4.4935,-5.95577 -4.69007,-5.97198c-0.19711,-0.01621 -1.7204,1.77598 -3.38447,3.98258"/>
  </g>
 </g>
</svg>